<svg width="10" height="16" viewBox="0 0 10 16" fill="none" xmlns="http://www.w3.org/2000/svg">
<path fill-rule="evenodd" clip-rule="evenodd" d="M0.231232 5.66342C-0.0770772 5.35511 -0.0770772 4.85525 0.231232 4.54694L4.44176 0.336411C4.75007 0.0281029 5.24993 0.0281029 5.55824 0.336411L9.76877 4.54694C10.0771 4.85525 10.0771 5.35511 9.76877 5.66342C9.46046 5.97173 8.96059 5.97173 8.65228 5.66342L5 2.01114L1.34772 5.66342C1.03941 5.97173 0.53954 5.97173 0.231232 5.66342Z" fill="#94BFCC"/>
<path fill-rule="evenodd" clip-rule="evenodd" d="M9.76877 10.3365C10.0771 10.6448 10.0771 11.1446 9.76877 11.4529L5.55824 15.6635C5.24993 15.9718 4.75007 15.9718 4.44176 15.6635L0.231231 11.4529C-0.0770769 11.1446 -0.0770769 10.6448 0.231231 10.3365C0.539539 10.0281 1.03941 10.0281 1.34772 10.3365L5 13.9887L8.65228 10.3365C8.96059 10.0281 9.46046 10.0281 9.76877 10.3365Z" fill="#94BFCC"/>
</svg>
