<svg width="14" height="24" viewBox="0 0 14 24" fill="none" xmlns="http://www.w3.org/2000/svg">
<path d="M13.19 11.715C13.1543 11.623 13.1008 11.5389 13.0325 11.4675L7.73001 6.16503C7.66008 6.0951 7.57706 6.03963 7.4857 6.00178C7.39433 5.96394 7.29641 5.94446 7.19751 5.94446C7.09862 5.94446 7.00069 5.96394 6.90932 6.00178C6.81796 6.03963 6.73494 6.0951 6.66501 6.16503C6.59508 6.23496 6.53961 6.31797 6.50177 6.40934C6.46392 6.50071 6.44444 6.59863 6.44444 6.69753C6.44444 6.79642 6.46392 6.89435 6.50177 6.98571C6.53961 7.07708 6.59508 7.1601 6.66501 7.23003L10.6925 11.25H1.5C1.30109 11.25 1.11032 11.329 0.96967 11.4697C0.829018 11.6104 0.75 11.8011 0.75 12C0.75 12.1989 0.829018 12.3897 0.96967 12.5304C1.11032 12.671 1.30109 12.75 1.5 12.75H10.6925L6.66501 16.77C6.59471 16.8398 6.53892 16.9227 6.50084 17.0141C6.46277 17.1055 6.44316 17.2035 6.44316 17.3025C6.44316 17.4015 6.46277 17.4996 6.50084 17.591C6.53892 17.6824 6.59471 17.7653 6.66501 17.835C6.73509 17.9045 6.8182 17.9595 6.90958 17.9969C7.00096 18.0342 7.09881 18.0531 7.19751 18.0525C7.29622 18.0531 7.39406 18.0342 7.48544 17.9969C7.57682 17.9595 7.65993 17.9045 7.73001 17.835L13.0325 12.5325C13.1008 12.4612 13.1543 12.3771 13.19 12.285C13.265 12.1024 13.265 11.8976 13.19 11.715Z" fill="white"/>
</svg>
