<svg width="1057" height="931" viewBox="0 0 1057 931" fill="none" xmlns="http://www.w3.org/2000/svg">
<path d="M3.60933 1.35575C2.48198 7.31098 1.35476 13.2661 0.227417 19.2213C10.8561 31.534 21.4849 43.8469 32.1135 56.1596C29.5369 63.8852 26.9602 71.611 24.3836 79.3366C28.2789 84.1699 32.1742 89.0031 36.0695 93.8364C31.0222 99.3807 25.9751 104.925 20.9278 110.469C20.5641 112.605 20.2003 114.741 19.8365 116.877C23.8379 116.423 27.8394 115.968 31.8408 115.514C41.7552 108.847 51.6697 102.179 61.5841 95.5122C61.0205 86.8209 60.4568 78.1295 59.8932 69.4382C64.138 74.1626 68.3829 78.8869 72.6277 83.6113C77.4817 78.565 82.3357 73.5188 87.1896 68.4725C86.626 72.9791 86.0622 77.4857 85.4986 81.9924C88.7194 84.0043 91.9402 86.0162 95.1611 88.028C88.961 93.2589 82.7609 98.4899 76.5608 103.721C89.7662 101.87 102.972 100.019 116.177 98.1679C125.195 97.2827 134.214 96.3974 143.232 95.5122C149.19 91.9713 155.149 88.4304 161.107 84.8894C169.884 85.0504 178.661 85.2113 187.438 85.3723C192.188 86.499 196.939 87.6256 201.69 88.7523C204.427 92.2932 207.165 95.8341 209.903 99.3752C205.233 98.1681 200.562 96.9609 195.892 95.7538C183.975 96.1562 172.058 96.5584 160.141 96.9608C158.611 98.0071 157.081 99.0533 155.551 100.099C166.744 101.548 177.936 102.996 189.128 104.445C196.916 107.765 204.704 111.085 212.491 114.405C219.278 116.799 226.065 119.192 232.851 121.586C242.514 127.22 252.176 132.853 261.839 138.486C261.053 133.839 260.268 129.191 259.483 124.544C256.162 125.328 252.84 126.113 249.519 126.898C249.277 123.94 249.036 120.983 248.794 118.025C258.517 118.327 268.24 118.629 277.963 118.931C274.158 123.397 270.353 127.863 266.549 132.33C270.776 135.348 275.004 138.366 279.231 141.383C282.733 142.349 286.236 143.315 289.739 144.28C291.007 146.393 292.275 148.505 293.543 150.618C287.142 149.169 280.741 147.721 274.339 146.272C281.949 153.092 289.558 159.913 297.167 166.733C303.387 170.475 309.607 174.217 315.827 177.959C317.941 183.754 320.055 189.548 322.168 195.342C322.229 201.74 322.289 208.138 322.35 214.536C332.495 212.664 342.641 210.794 352.786 208.922C357.618 208.56 362.449 208.198 367.28 207.836C372.715 205.06 378.151 202.283 383.586 199.507C388.175 199.205 392.765 198.903 397.355 198.601C408.165 191.781 418.974 184.961 429.784 178.14C438.843 178.503 447.902 178.865 456.96 179.227C457.806 175.726 458.651 172.226 459.496 168.725C456.96 166.612 454.424 164.5 451.887 162.387C454.846 158.887 457.805 155.386 460.765 151.885C461.972 152.187 463.18 152.489 464.388 152.791C465.475 151.101 466.562 149.411 467.649 147.721C478.761 148.023 489.873 148.324 500.985 148.626C510.647 153.394 520.31 158.163 529.972 162.931C536.467 167.355 542.961 171.78 549.456 176.205C554.556 181.86 559.656 187.515 564.757 193.17C566.629 197.515 568.501 201.861 570.373 206.207C576.473 209.768 582.572 213.329 588.672 216.89C589.879 225.098 591.087 233.307 592.295 241.515C601.656 249.06 611.016 256.605 620.377 264.149C626.174 274.168 631.971 284.187 637.769 294.207C649.304 296.44 660.838 298.673 672.373 300.906C676.419 309.899 680.465 318.893 684.511 327.886C686.987 331.205 689.463 334.525 691.939 337.845C690.309 340.017 688.678 342.19 687.048 344.363C689.463 352.632 691.879 360.901 694.295 369.17C693.751 380.939 693.208 392.709 692.664 404.478C686.625 420.593 680.586 436.709 674.547 452.824C674.668 460.248 674.788 467.672 674.909 475.095C672.796 484.33 670.682 493.565 668.568 502.799C670.38 506.723 672.192 510.646 674.003 514.569C676.358 517.647 678.714 520.725 681.069 523.803C685.477 524.045 689.886 524.286 694.294 524.528C694.536 518.432 694.778 512.336 695.019 506.239C692.785 500.626 690.55 495.013 688.316 489.4C689.04 485.235 689.765 481.071 690.49 476.906C696.529 481.192 702.568 485.477 708.607 489.762C708.849 495.013 709.09 500.264 709.332 505.515C712.472 506.421 715.612 507.326 718.752 508.231C722.497 502.377 726.241 496.522 729.985 490.667C729.502 498.212 729.019 505.757 728.536 513.301C723.523 519.216 718.511 525.131 713.499 531.046C709.936 538.53 706.372 546.015 702.809 553.499C698.703 556.336 694.596 559.172 690.49 562.009C695.381 568.045 700.273 574.08 705.165 580.116C704.983 585.609 704.802 591.101 704.621 596.594C709.392 603.052 714.163 609.51 718.934 615.968C721.168 622.305 723.403 628.643 725.637 634.98C735.239 646.569 744.841 658.157 754.443 669.746C756.859 669.686 759.275 669.625 761.69 669.565C760.724 663.227 759.758 656.89 758.791 650.552C765.434 648.018 772.077 645.483 778.72 642.948C777.754 646.086 776.788 649.225 775.822 652.363C776.003 660.572 776.184 668.78 776.365 676.989C774.312 682.24 772.259 687.491 770.205 692.742C769.239 691.414 768.273 690.086 767.307 688.758C766.401 690.69 765.495 692.621 764.589 694.552C765.766 697.43 766.943 700.308 768.121 703.186C769.553 703.095 770.985 703.004 772.418 702.913C773.915 701.213 775.412 699.512 776.909 697.812C777.633 699.562 778.358 701.312 779.083 703.063C778.177 704.511 777.271 705.96 776.365 707.408C781.74 712.78 787.115 718.152 792.489 723.524C797.502 729.921 802.514 736.319 807.527 742.717C811.09 759.255 814.653 775.792 818.216 792.33C821.416 794.865 824.617 797.4 827.818 799.935C826.63 803.064 825.442 806.194 824.254 809.323C828.937 808.505 833.621 807.687 838.304 806.869C839.214 808.914 840.123 810.959 841.033 813.004C849.31 814.744 857.587 816.484 865.864 818.223C868.944 821.181 872.023 824.138 875.103 827.096C876.432 831.26 877.76 835.425 879.089 839.59C883.679 846.289 888.268 852.989 892.858 859.688C897.508 864.396 902.158 869.104 906.808 873.812C907.473 878.64 908.137 883.469 908.801 888.297C912.721 889.649 916.641 891 920.56 892.351C923.061 893.245 925.562 894.139 928.063 895.033C929.609 896.456 931.155 897.88 932.701 899.304C934.518 901.43 936.334 903.555 938.151 905.68C938.936 907.31 939.721 908.939 940.506 910.569C938.574 912.802 936.641 915.036 934.709 917.269C930.361 915.579 926.013 913.889 921.665 912.199C919.796 909.4 917.927 906.602 916.059 903.803C916.297 901.532 916.535 899.26 916.773 896.989C914.297 896.868 911.821 896.747 909.345 896.627C906.869 902.481 904.393 908.336 901.917 914.191C905.419 919.683 908.922 925.176 912.425 930.668C930.723 928.616 949.021 926.564 967.32 924.512C972.996 920.89 978.673 917.269 984.35 913.647C988.637 913.647 992.925 913.647 997.213 913.647C1005.18 905.922 1013.16 898.196 1021.13 890.47C1019.56 886.064 1017.99 881.658 1016.42 877.252C1018.77 869.526 1021.13 861.801 1023.48 854.075C1028.8 845.505 1034.11 836.934 1039.43 828.363C1041.6 815.749 1043.77 803.134 1045.95 790.52C1048.12 774.404 1050.3 758.289 1052.47 742.174C1053.98 724.429 1055.49 706.684 1057 688.939C1056.21 675.962 1055.43 662.986 1054.64 650.009C1050.6 638.481 1046.55 626.953 1042.51 615.425C1039.58 614.798 1036.66 614.172 1033.74 613.546C1033.07 608.365 1032.4 603.184 1031.74 598.004C1028.6 591.323 1025.46 584.643 1022.32 577.962C1020.14 566.692 1017.96 555.422 1015.78 544.151C1009.64 531.972 1003.5 519.793 997.36 507.613C992.618 497.786 987.894 487.427 983.263 476.544C978.308 464.897 973.858 453.586 969.857 442.684C970.038 436.407 970.219 430.13 970.4 423.853C972.157 415.417 973.914 406.981 975.671 398.545C976.944 396.5 978.217 394.455 979.491 392.41C980.946 394.682 982.401 396.955 983.856 399.227C981.492 405.135 979.127 411.043 976.762 416.951C978.399 418.768 980.036 420.586 981.673 422.404C984.22 418.132 986.766 413.86 989.312 409.589C989.13 407.089 988.949 404.589 988.767 402.09C988.261 399.144 987.755 396.198 987.249 393.252C983.324 388.302 979.398 383.353 975.473 378.404C970.702 375.688 965.931 372.972 961.16 370.256C959.228 366.393 957.295 362.53 955.363 358.667C951.141 347.495 946.919 336.322 942.697 325.15C935.807 314.413 928.917 303.676 922.028 292.939C921.544 289.257 921.061 285.575 920.578 281.894C914.751 266.801 908.923 251.708 903.095 236.616C900.045 228.29 896.996 219.964 893.946 211.638C891.41 207.534 888.873 203.43 886.337 199.326C886.035 192.626 885.733 185.927 885.431 179.227C881.566 162.991 877.701 146.755 873.836 130.519C872.206 121.647 870.575 112.774 868.944 103.902C864.536 102.393 860.127 100.884 855.719 99.3751C857.893 97.685 860.067 95.995 862.241 94.305C862.543 80.1815 862.845 66.0582 863.147 51.9347C857.289 50.7276 851.431 49.5203 845.573 48.3132C847.506 46.1404 849.438 43.9675 851.371 41.7947C831.684 37.2679 811.996 32.7412 792.309 28.2145C788.021 35.0951 783.733 41.9758 779.446 48.8565C778.298 67.6877 778.056 52.4779 776.909 71.3091C771.353 70.8867 773.858 56.4609 765.887 72.5157C765.283 61.5912 763.029 74.8985 757.524 71.3091C633.059 63.7042 508.595 56.0993 384.13 48.4943C377.97 32.5602 371.81 16.626 365.65 0.691772C244.97 0.913101 124.29 1.13443 3.60933 1.35575Z" fill="#ABDFEF" fill-opacity="0.3"/>
</svg>
