<svg width="209px" height="80px" viewBox="0 0 209 80" version="1.1" xmlns="http://www.w3.org/2000/svg" xmlns:xlink="http://www.w3.org/1999/xlink">
    <defs>
        <linearGradient x1="49.9900887%" y1="0.286486953%" x2="49.9900887%" y2="100.900281%" id="linearGradient-1">
            <stop stop-color="#ABDFEE" offset="0%"></stop>
            <stop stop-color="#AFDDEA" offset="24%"></stop>
            <stop stop-color="#BAD6DF" offset="46%"></stop>
            <stop stop-color="#CCCBCD" offset="67%"></stop>
            <stop stop-color="#E6BBB3" offset="88%"></stop>
            <stop stop-color="#F9AFA0" offset="100%"></stop>
        </linearGradient>
    </defs>
    <g id="Page-1" stroke="none" stroke-width="1" fill="none" fill-rule="evenodd">
        <g id="fldc22-logo" transform="translate(0.133056, 0.015686)" fill-rule="nonzero">
            <path d="M99.1469437,23.584314 L99.1469437,29.088314 L89.1629437,29.088314 L89.1629437,32.032314 L96.3629437,32.032314 L96.3629437,37.536314 L89.1629437,37.536314 L89.1629437,45.984314 L83.4669437,45.984314 L83.4669437,23.584314 L99.1469437,23.584314 Z M108.164944,23.584314 L108.164944,40.480314 L117.220944,40.480314 L117.220944,45.984314 L102.660944,45.984314 L102.660944,23.584314 L108.164944,23.584314 Z M136.535944,30.784314 C136.535944,28.672314 136.087944,23.008314 128.503944,23.008314 C120.919944,23.008314 120.471944,28.672314 120.471944,30.784314 L120.471944,38.784314 C120.471944,40.896314 120.919944,46.560314 128.503944,46.560314 C136.087944,46.560314 136.535944,40.896314 136.535944,38.784314 L136.535944,30.784314 Z M131.031944,37.088314 C131.031944,39.552314 130.871944,41.056314 128.503944,41.056314 C126.135944,41.056314 125.975944,39.552314 125.975944,37.088314 L125.975944,32.480314 C125.975944,30.016314 126.135944,28.512314 128.503944,28.512314 C130.871944,28.512314 131.031944,30.016314 131.031944,32.480314 L131.031944,37.088314 Z M154.360944,37.728314 C156.344944,36.288314 157.016944,34.304314 157.016944,31.264314 C157.016944,26.016314 154.712944,23.584314 149.016944,23.584314 L141.016944,23.584314 L141.016944,45.984314 L146.584944,45.984314 L146.584944,38.976314 L149.048944,38.976314 L152.664944,45.984314 L158.808944,45.984314 L154.360944,37.728314 Z M149.208944,29.120314 C150.744944,29.088314 151.512944,29.280314 151.512944,31.264314 C151.512944,33.248314 150.744944,33.440314 149.208944,33.440314 L146.584944,33.440314 L146.584944,29.120314 L149.208944,29.120314 Z M167.650944,23.584314 L167.650944,45.984314 L162.210944,45.984314 L162.210944,23.584314 L167.650944,23.584314 Z M172.435944,23.584314 L172.435944,45.984314 L180.531944,45.984314 C186.547944,45.984314 188.531944,43.520314 188.531944,38.272314 L188.531944,31.264314 C188.531944,26.016314 186.547944,23.584314 180.531944,23.584314 L172.435944,23.584314 Z M177.939944,40.480314 L177.939944,29.088314 L180.627944,29.088314 C182.163944,29.088314 182.931944,29.280314 182.931944,31.264314 C182.931944,31.296314 182.931944,38.272314 182.931944,38.304314 C182.931944,40.224314 182.163944,40.480314 180.627944,40.480314 L177.939944,40.480314 Z M208.523944,45.984314 L203.019944,45.984314 L203.019944,41.280314 L198.347944,41.280314 L198.347944,45.984314 L192.843944,45.984314 L192.843944,31.328314 C192.843944,27.296314 193.483944,23.008314 200.683944,23.008314 C207.883944,23.008314 208.523944,27.296314 208.523944,31.328314 L208.523944,45.984314 Z M203.019944,31.328314 C203.019944,29.792314 202.795944,29.024314 200.683944,29.024314 C198.571944,29.024314 198.347944,29.792314 198.347944,31.328314 L198.347944,35.744314 L203.019944,35.744314 L203.019944,31.328314 Z" id="Shape" fill="#003451"></path>
            <path d="M83.0429437,64.984314 L86.8649437,64.984314 C89.9449437,64.984314 92.0729437,62.842314 92.0729437,60.084314 L92.0729437,60.056314 C92.0729437,57.298314 89.9449437,55.184314 86.8649437,55.184314 L83.0429437,55.184314 L83.0429437,64.984314 Z M85.1989437,63.038314 L85.1989437,57.130314 L86.8649437,57.130314 C88.6289437,57.130314 89.8189437,58.348314 89.8189437,60.084314 L89.8189437,60.112314 C89.8189437,61.848314 88.6289437,63.038314 86.8649437,63.038314 L85.1989437,63.038314 Z M94.6941437,64.984314 L96.8501437,64.984314 L96.8501437,61.848314 L98.5161437,61.848314 L98.5441437,61.848314 L100.643944,64.984314 L103.163944,64.984314 L100.769944,61.484314 C102.015944,61.022314 102.869944,60.028314 102.869944,58.446314 L102.869944,58.418314 C102.869944,57.494314 102.575944,56.724314 102.029944,56.178314 C101.385944,55.534314 100.419944,55.184314 99.1741437,55.184314 L94.6941437,55.184314 L94.6941437,64.984314 Z M96.8501437,59.944314 L96.8501437,57.130314 L98.9921437,57.130314 C100.041944,57.130314 100.685944,57.606314 100.685944,58.530314 L100.685944,58.558314 C100.685944,59.384314 100.083944,59.944314 99.0341437,59.944314 L96.8501437,59.944314 Z M109.598944,65.138314 C112.230944,65.138314 113.896944,63.682314 113.896944,60.714314 L113.896944,55.184314 L111.740944,55.184314 L111.740944,60.798314 C111.740944,62.352314 110.942944,63.150314 109.626944,63.150314 C108.310944,63.150314 107.512944,62.324314 107.512944,60.728314 L107.512944,55.184314 L105.356944,55.184314 L105.356944,60.784314 C105.356944,63.668314 106.966944,65.138314 109.598944,65.138314 Z M116.792944,64.984314 L118.948944,64.984314 L118.948944,62.044314 L120.586944,62.044314 C122.784944,62.044314 124.548944,60.868314 124.548944,58.600314 L124.548944,58.572314 C124.548944,56.570314 123.134944,55.184314 120.796944,55.184314 L116.792944,55.184314 L116.792944,64.984314 Z M118.948944,60.126314 L118.948944,57.130314 L120.614944,57.130314 C121.692944,57.130314 122.364944,57.648314 122.364944,58.614314 L122.364944,58.642314 C122.364944,59.482314 121.734944,60.126314 120.656944,60.126314 L118.948944,60.126314 Z M126.004944,64.984314 L128.202944,64.984314 L129.098944,62.786314 L133.242944,62.786314 L134.138944,64.984314 L136.392944,64.984314 L132.192944,55.114314 L130.204944,55.114314 L126.004944,64.984314 Z M129.868944,60.882314 L131.170944,57.704314 L132.472944,60.882314 L129.868944,60.882314 Z M138.605944,64.984314 L145.647944,64.984314 L145.647944,63.024314 L140.761944,63.024314 L140.761944,55.184314 L138.605944,55.184314 L138.605944,64.984314 Z M157.462944,65.152314 C159.352944,65.152314 160.472944,64.480314 161.480944,63.402314 L160.108944,62.016314 C159.338944,62.716314 158.652944,63.164314 157.532944,63.164314 C155.852944,63.164314 154.690944,61.764314 154.690944,60.084314 L154.690944,60.056314 C154.690944,58.376314 155.880944,57.004314 157.532944,57.004314 C158.512944,57.004314 159.282944,57.424314 160.038944,58.110314 L161.410944,56.528314 C160.500944,55.632314 159.394944,55.016314 157.546944,55.016314 C154.536944,55.016314 152.436944,57.298314 152.436944,60.084314 L152.436944,60.112314 C152.436944,62.926314 154.578944,65.152314 157.462944,65.152314 Z M163.066944,64.984314 L165.264944,64.984314 L166.160944,62.786314 L170.304944,62.786314 L171.200944,64.984314 L173.454944,64.984314 L169.254944,55.114314 L167.266944,55.114314 L163.066944,64.984314 Z M166.930944,60.882314 L168.232944,57.704314 L169.534944,60.882314 L166.930944,60.882314 Z M175.666944,64.984314 L177.780944,64.984314 L177.780944,58.628314 L180.510944,62.772314 L180.566944,62.772314 L183.324944,58.586314 L183.324944,64.984314 L185.466944,64.984314 L185.466944,55.184314 L183.142944,55.184314 L180.566944,59.328314 L177.990944,55.184314 L175.666944,55.184314 L175.666944,64.984314 Z M188.521944,64.984314 L190.677944,64.984314 L190.677944,62.044314 L192.315944,62.044314 C194.513944,62.044314 196.277944,60.868314 196.277944,58.600314 L196.277944,58.572314 C196.277944,56.570314 194.863944,55.184314 192.525944,55.184314 L188.521944,55.184314 L188.521944,64.984314 Z M190.677944,60.126314 L190.677944,57.130314 L192.343944,57.130314 C193.421944,57.130314 194.093944,57.648314 194.093944,58.614314 L194.093944,58.642314 C194.093944,59.482314 193.463944,60.126314 192.385944,60.126314 L190.677944,60.126314 Z" id="Shape" fill="#F96320"></path>
            <g id="Group">
                <path d="M60.6145437,45.252114 C60.2350437,40.383814 58.5820437,35.701014 55.8212437,31.673314 C54.9178437,30.329314 53.9150437,29.054814 52.8211437,27.860614 C50.1921437,24.782314 47.5708437,21.696214 44.9223437,18.633614 C44.0941437,17.672614 43.2503437,16.719414 42.4378437,15.750614 C40.4533437,13.379414 38.4102437,11.062914 36.4258437,8.691734 C35.1757437,7.203384 33.8944437,5.734564 32.6326437,4.250114 C32.4607437,4.043074 32.3631437,4.023544 32.1756437,4.250114 C30.6390437,6.073114 29.0973437,7.888284 27.5503437,9.695664 L20.0734437,18.434414 C17.4066437,21.559514 14.7398437,24.674314 12.0730437,27.778614 C10.6393437,29.355314 9.34662368,31.054614 8.20959368,32.857014 C6.77056368,35.263014 5.69013368,37.866014 5.00241368,40.583914 C4.51598368,42.515514 4.21769368,44.489614 4.11174368,46.478714 C3.92324368,51.502014 5.08182368,56.484314 7.46737368,60.909114 L7.46737368,60.909114 C8.05851368,62.053514 8.74316368,63.147114 9.51434368,64.178814 C13.4525437,69.623414 19.2024437,73.486114 25.7319437,75.073414 C32.2614437,76.660714 39.1429437,75.868614 45.1410437,72.839414 C46.4705437,72.164314 47.7419437,71.380314 48.9420437,70.495514 C50.0804437,69.677614 51.1599437,68.780814 52.1726437,67.811814 C54.6510437,65.400014 56.6627437,62.551414 58.1065437,59.409014 C59.1447437,57.137414 59.8902437,54.743114 60.3254437,52.283714 C60.7292437,49.962614 60.8264437,47.598514 60.6145437,45.252114 Z" id="Path" fill="#003451"></path>
                <path d="M32.4451437,79.9844147 C29.8346437,79.980214 27.2340437,79.664114 24.6986437,79.042914 C17.2506437,77.208414 10.6932437,72.794814 6.18991368,66.585214 C5.31060368,65.396514 4.52686368,64.139914 3.84605368,62.827314 C1.11544368,57.752314 -0.20390012,52.037914 0.0255506801,46.279614 C0.14046168,44.025614 0.47540368,41.788314 1.02560368,39.599614 C1.80998368,36.498114 3.04310368,33.527814 4.68593368,30.782714 C5.94320368,28.764314 7.38149368,26.864414 8.98301368,25.106614 L14.9051437,18.192314 L18.5928437,13.895214 L24.4525437,7.039364 C25.9942437,5.237194 27.5321437,3.429864 29.0660437,1.617274 C29.4719437,1.116464 29.9837437,0.711702 30.5645437,0.432083 C31.1454437,0.152465 31.7809437,0.0049217 32.4255437,-2.31065167e-15 L32.4255437,-2.31065167e-15 C33.0658437,0.0035641 33.6974437,0.148208 34.2754437,0.423691 C34.8533437,0.699173 35.3635437,1.098704 35.7694437,1.593814 C36.2903437,2.211024 36.8177437,2.828244 37.3515437,3.445464 C38.0938437,4.312694 38.8360437,5.176034 39.5704437,6.051074 C40.5314437,7.195664 41.5236437,8.351974 42.4885437,9.473114 C43.5042437,10.645014 44.5589437,11.883414 45.5863437,13.113914 C46.1489437,13.785814 46.7270437,14.449914 47.3052437,15.114014 L48.0279437,15.946114 C50.2116437,18.473514 52.4109437,21.051814 54.5360437,23.544114 L56.4072437,25.735614 C57.4532437,26.891814 58.4079437,28.127314 59.2628437,29.431114 C62.3927437,34.029114 64.2696437,39.363614 64.7084437,44.908414 C64.9437437,47.603514 64.8282437,50.317714 64.3646437,52.983014 C63.8699437,55.782214 63.0219437,58.507214 61.8410437,61.092814 C60.1893437,64.697414 57.8877437,67.966914 55.0516437,70.737814 C53.9012437,71.843914 52.6742437,72.867314 51.3796437,73.800414 C49.9994437,74.816014 48.5387437,75.717414 47.0122437,76.495914 C43.8011437,78.118214 40.3421437,79.194214 36.7773437,79.679614 C35.3422437,79.882814 33.8945437,79.9844147 32.4451437,79.9844147 Z M32.4177437,10.305214 L30.6676437,12.356114 L24.8080437,19.211814 L21.1203437,23.508914 C19.1436437,25.816314 17.1670437,28.123714 15.1903437,30.431114 C13.9163437,31.828414 12.7649437,33.332814 11.7487437,34.927414 C10.5092437,36.994614 9.57876368,39.231914 8.98692368,41.568414 C8.56037368,43.242014 8.29869368,44.953414 8.20564368,46.678014 C8.04992368,50.933614 9.03015368,55.153914 11.0456437,58.905214 L11.1393437,59.084914 C11.6331437,60.026014 12.2013437,60.926014 12.8386437,61.776414 C16.1974437,66.399914 21.0812437,69.688514 26.6284437,71.062014 C32.2204437,72.441314 38.1212437,71.776314 43.2659437,69.187014 C44.3969437,68.612614 45.4787437,67.946314 46.5004437,67.194714 C47.4820437,66.490014 48.4140437,65.718614 49.2896437,64.886014 C51.4156437,62.821514 53.1379437,60.378514 54.3680437,57.682514 C55.2637437,55.723814 55.9057437,53.658914 56.2783437,51.537614 C56.6204437,49.573814 56.7018437,47.573314 56.5205437,45.588114 C56.2087437,41.423714 54.7958437,37.417014 52.4265437,33.978214 L52.3328437,33.833714 C51.6865437,32.869414 50.9682437,31.955214 50.1842437,31.099214 L48.2818437,28.872514 C46.1645437,26.391914 43.9847437,23.825414 41.8127437,21.321314 L41.1056437,20.504914 C40.4923437,19.801714 39.8829437,19.098614 39.2852437,18.387614 C38.2891437,17.215614 37.2539437,15.992914 36.2538437,14.828814 C35.2538437,13.664714 34.2655437,12.512314 33.2771437,11.332614 L32.4177437,10.305214 Z" id="Shape" fill="#003451"></path>
                <path d="M60.6145437,45.252114 C60.2350437,40.383814 58.5820437,35.701014 55.8212437,31.673314 C54.9178437,30.329314 53.9150437,29.054814 52.8211437,27.860614 C50.1921437,24.782314 47.5708437,21.696214 44.9223437,18.633614 C44.0941437,17.672614 43.2503437,16.719414 42.4378437,15.750614 C40.4533437,13.379414 38.4102437,11.062914 36.4258437,8.691734 C35.1757437,7.203384 33.8944437,5.734564 32.6326437,4.250114 C32.4607437,4.043074 32.3631437,4.023544 32.1756437,4.250114 C30.6390437,6.073114 29.0973437,7.888284 27.5503437,9.695664 L20.0734437,18.434414 C17.4066437,21.559514 14.7398437,24.674314 12.0730437,27.778614 C10.6393437,29.355314 9.34662368,31.054614 8.20959368,32.857014 C6.77056368,35.263014 5.69013368,37.866014 5.00241368,40.583914 C4.51598368,42.515514 4.21769368,44.489614 4.11174368,46.478714 C3.92324368,51.502014 5.08182368,56.484314 7.46737368,60.909114 L7.46737368,60.909114 C8.05851368,62.053514 8.74316368,63.147114 9.51434368,64.178814 C13.4525437,69.623414 19.2024437,73.486114 25.7319437,75.073414 C32.2614437,76.660714 39.1429437,75.868614 45.1410437,72.839414 C46.4705437,72.164314 47.7419437,71.380314 48.9420437,70.495514 C50.0804437,69.677614 51.1599437,68.780814 52.1726437,67.811814 C54.6510437,65.400014 56.6627437,62.551414 58.1065437,59.409014 C59.1447437,57.137414 59.8902437,54.743114 60.3254437,52.283714 C60.7292437,49.962614 60.8264437,47.598514 60.6145437,45.252114 Z" id="Path" fill="url(#linearGradient-1)"></path>
                <path d="M32.4022437,67.011014 C43.1356437,67.011014 51.8367437,58.309914 51.8367437,47.576514 C51.8367437,36.843114 43.1356437,28.141914 32.4022437,28.141914 C21.6688437,28.141914 12.9676437,36.843114 12.9676437,47.576514 C12.9676437,58.309914 21.6688437,67.011014 32.4022437,67.011014 Z" id="Path" fill="#F68958"></path>
                <path d="M42.3362437,33.392314 L44.5121437,31.216314 C44.5424437,31.186914 44.5664437,31.151614 44.5828437,31.112714 C44.5992437,31.073814 44.6077437,31.032014 44.6077437,30.989814 C44.6077437,30.947614 44.5992437,30.905814 44.5828437,30.866914 C44.5664437,30.827914 44.5424437,30.792714 44.5121437,30.763214 C43.4756437,29.794214 42.2378437,29.066114 40.8871437,28.631214 C39.5365437,28.196314 38.1064437,28.065314 36.6992437,28.247514 C36.6320437,28.257814 36.5632437,28.245914 36.5034437,28.213614 C36.4435437,28.181314 36.3958437,28.130414 36.3675437,28.068514 C36.3392437,28.006614 36.3319437,27.937214 36.3467437,27.870814 C36.3614437,27.804414 36.3974437,27.744614 36.4492437,27.700514 C37.4281437,26.894714 38.6401437,26.424914 39.9064437,26.360714 C39.9876437,26.357714 40.0646437,26.323514 40.1213437,26.265314 C40.1780437,26.207214 40.2102437,26.129414 40.2111437,26.048114 L40.2111437,22.969914 C40.2117437,22.928014 40.2037437,22.886514 40.1877437,22.847814 C40.1717437,22.809114 40.1480437,22.774114 40.1181437,22.744814 C40.0881437,22.715614 40.0525437,22.692814 40.0134437,22.677714 C39.9744437,22.662714 39.9326437,22.655814 39.8908437,22.6571878 C38.4932437,22.703414 37.1224437,23.053314 35.8737437,23.682714 C34.6250437,24.312114 33.5283437,25.206014 32.6600437,26.302114 C32.6307437,26.339414 32.5934437,26.369614 32.5508437,26.390414 C32.5081437,26.411114 32.4613437,26.422014 32.4139437,26.422014 C32.3664437,26.422014 32.3196437,26.411114 32.2770437,26.390414 C32.2344437,26.369614 32.1970437,26.339414 32.1678437,26.302114 C31.3006437,25.205714 30.2047437,24.311614 28.9566437,23.682114 C27.7084437,23.052614 26.3380437,22.702914 24.9409437,22.6571878 C24.8990437,22.655814 24.8573437,22.662714 24.8182437,22.677714 C24.7792437,22.692814 24.7436437,22.715614 24.7136437,22.744814 C24.6836437,22.774114 24.6599437,22.809114 24.6439437,22.847814 C24.6279437,22.886514 24.6200437,22.928014 24.6205437,22.969914 L24.6205437,26.048114 C24.6205437,26.129014 24.6518437,26.206814 24.7079437,26.265114 C24.7640437,26.323414 24.8405437,26.357614 24.9213437,26.360714 C26.1860437,26.423514 27.3969437,26.892014 28.3746437,27.696614 C28.4265437,27.739614 28.4630437,27.798414 28.4783437,27.864114 C28.4937437,27.929714 28.4872437,27.998514 28.4597437,28.060114 C28.4322437,28.121714 28.3854437,28.172614 28.3263437,28.205014 C28.2672437,28.237414 28.1991437,28.249614 28.1324437,28.239614 C27.7243437,28.187814 27.3133437,28.161814 26.9019437,28.161514 C24.4526437,28.154414 22.0939437,29.087014 20.3117437,30.767114 C20.2530437,30.826414 20.2201437,30.906414 20.2201437,30.989814 C20.2201437,31.073214 20.2530437,31.153214 20.3117437,31.212414 L22.4915437,33.392314 C22.5491437,33.448114 22.6262437,33.479314 22.7064437,33.479314 C22.7866437,33.479314 22.8636437,33.448114 22.9212437,33.392314 C24.0129437,32.404214 25.4334437,31.858314 26.9058437,31.860914 C27.0581437,31.860914 27.2066437,31.860914 27.3550437,31.860914 C26.0017437,32.696914 24.8760437,33.854314 24.0779437,35.230314 C23.2798437,36.606314 22.8342437,38.158314 22.7806437,39.748014 C22.7790437,39.789914 22.7859437,39.831614 22.8010437,39.870614 C22.8160437,39.909714 22.8388437,39.945314 22.8681437,39.975314 C22.8973437,40.005214 22.9323437,40.028914 22.9710437,40.044914 C23.0097437,40.060914 23.0512437,40.068914 23.0931437,40.068314 L26.1714437,40.068314 C26.2526437,40.067414 26.3304437,40.035214 26.3886437,39.978514 C26.4468437,39.921814 26.4809437,39.844814 26.4839437,39.763614 C26.5418437,38.645114 26.9146437,37.565614 27.5595437,36.649814 C28.2044437,35.734014 29.0950437,35.019114 30.1286437,34.587614 C30.1763437,34.567114 30.2283437,34.558614 30.2801437,34.562914 C30.3318437,34.567314 30.3817437,34.584314 30.4254437,34.612514 C30.4690437,34.640714 30.5050437,34.679214 30.5302437,34.724614 C30.5555437,34.770014 30.5691437,34.820814 30.5700437,34.872814 L30.5700437,54.506514 C30.5700437,54.547414 30.5781437,54.587914 30.5939437,54.625614 C30.6096437,54.663314 30.6327437,54.697514 30.6618437,54.726214 C30.6909437,54.754914 30.7254437,54.777514 30.7632437,54.792814 C30.8011437,54.808114 30.8417437,54.815714 30.8825437,54.8152372 L33.9569437,54.8152372 C33.9978437,54.815714 34.0383437,54.808114 34.0762437,54.792814 C34.1141437,54.777514 34.1486437,54.754914 34.1777437,54.726214 C34.2067437,54.697514 34.2298437,54.663314 34.2456437,54.625614 C34.2613437,54.587914 34.2694437,54.547414 34.2694437,54.506514 L34.2694437,34.872814 C34.2696437,34.821014 34.2827437,34.770114 34.3075437,34.724614 C34.3322437,34.679114 34.3679437,34.640514 34.4113437,34.612214 C34.4547437,34.583914 34.5044437,34.566914 34.5560437,34.562614 C34.6076437,34.558314 34.6595437,34.566914 34.7070437,34.587614 C35.7413437,35.018514 36.6327437,35.733214 37.2783437,36.649014 C37.9239437,37.564914 38.2974437,38.644614 38.3556437,39.763614 C38.3576437,39.844514 38.3909437,39.921414 38.4484437,39.978214 C38.5060437,40.035014 38.5833437,40.067414 38.6642437,40.068314 L41.7425437,40.068314 C41.7845437,40.068914 41.8262437,40.060914 41.8651437,40.045014 C41.9040437,40.029014 41.9392437,40.005414 41.9688437,39.975514 C41.9983437,39.945614 42.0215437,39.910014 42.0370437,39.870914 C42.0525437,39.831814 42.0599437,39.790114 42.0589437,39.748014 C42.0116437,38.327614 41.6504437,36.935214 41.0014437,35.670914 C40.3523437,34.406514 39.4314437,33.301514 38.3048437,32.435214 C38.2528437,32.392014 38.2160437,32.333414 38.1998437,32.267914 C38.1835437,32.202414 38.1886437,32.133414 38.2144437,32.071014 C38.2401437,32.008614 38.2851437,31.956114 38.3429437,31.921114 C38.4006437,31.886114 38.4680437,31.870514 38.5353437,31.876614 C39.7922437,32.002614 40.9761437,32.526814 41.9143437,33.372714 C41.9699437,33.427314 42.0437437,33.459614 42.1215437,33.463214 C42.1994437,33.466814 42.2758437,33.441514 42.3362437,33.392314 L42.3362437,33.392314 Z" id="Path" fill="#003451"></path>
                <path d="M56.3056437,51.986914 C55.3779437,51.986814 54.4738437,51.694214 53.7219437,51.150614 C52.9701437,50.607114 52.4088437,49.840314 52.1179437,48.959414 C52.1036437,48.911914 52.0745437,48.870314 52.0347437,48.840814 C51.9950437,48.811214 51.9467437,48.795314 51.8972437,48.795314 C51.8477437,48.795314 51.7994437,48.811214 51.7597437,48.840814 C51.7199437,48.870314 51.6908437,48.911914 51.6765437,48.959414 C51.3853437,49.841114 50.8235437,50.608514 50.0709437,51.152514 C49.3184437,51.696514 48.4134437,51.989314 47.4849437,51.989314 C46.5563437,51.989314 45.6514437,51.696514 44.8988437,51.152514 C44.1463437,50.608514 43.5845437,49.841114 43.2933437,48.959414 C43.2790437,48.911914 43.2498437,48.870314 43.2101437,48.840814 C43.1703437,48.811214 43.1221437,48.795314 43.0725437,48.795314 C43.0230437,48.795314 42.9748437,48.811214 42.9350437,48.840814 C42.8953437,48.870314 42.8661437,48.911914 42.8518437,48.959414 C42.5166437,49.947014 41.8425437,50.784114 40.9489437,51.322114 C40.0554437,51.860114 39.0003437,52.064414 37.9705437,51.898714 C36.9408437,51.733014 36.0029437,51.208114 35.3233437,50.416914 C34.6437437,49.625714 34.2662437,48.619414 34.2577437,47.576514 L30.5739437,47.576514 C30.5654437,48.619414 30.1879437,49.625714 29.5082437,50.416914 C28.8286437,51.208114 27.8908437,51.733014 26.8610437,51.898714 C25.8313437,52.064414 24.7761437,51.860114 23.8826437,51.322114 C22.9891437,50.784114 22.3150437,49.947014 21.9797437,48.959414 C21.9655437,48.911914 21.9363437,48.870314 21.8965437,48.840814 C21.8568437,48.811214 21.8085437,48.795314 21.7590437,48.795314 C21.7095437,48.795314 21.6612437,48.811214 21.6215437,48.840814 C21.5817437,48.870314 21.5526437,48.911914 21.5383437,48.959414 C21.2471437,49.841114 20.6853437,50.608514 19.9327437,51.152514 C19.1802437,51.696514 18.2752437,51.989314 17.3467437,51.989314 C16.4181437,51.989314 15.5132437,51.696514 14.7606437,51.152514 C14.0081437,50.608514 13.4463437,49.841114 13.1551437,48.959414 C13.1408437,48.911914 13.1116437,48.870314 13.0719437,48.840814 C13.0321437,48.811214 12.9839437,48.795314 12.9344437,48.795314 C12.8848437,48.795314 12.8366437,48.811214 12.7968437,48.840814 C12.7571437,48.870314 12.7279437,48.911914 12.7136437,48.959414 C12.3784437,49.947014 11.7043437,50.784114 10.8108437,51.322114 C9.91724368,51.860114 8.86212368,52.064414 7.83236368,51.898714 C6.80261368,51.733014 5.86478368,51.208114 5.18516368,50.416914 C4.50553368,49.625714 4.12800368,48.619414 4.11950368,47.576514 L4.11950368,47.576514 C4.11950368,55.087814 7.10339368,62.291614 12.4147437,67.602914 C17.7260437,72.914314 24.9298437,75.898214 32.4412437,75.898214 C39.9526437,75.898214 47.1563437,72.914314 52.4676437,67.602914 C57.7790437,62.291614 60.7629437,55.087814 60.7629437,47.576514 L60.7629437,47.576514 C60.7629437,48.159614 60.6473437,48.737014 60.4227437,49.275114 C60.1981437,49.813314 59.8691437,50.301614 59.4546437,50.711814 C59.0400437,51.121914 58.5483437,51.445814 58.0078437,51.664714 C57.4673437,51.883514 56.8887437,51.993014 56.3056437,51.986914 Z" id="Path" fill="#003451"></path>
                <path d="M56.3017437,51.986914 C55.3733437,51.987614 54.4684437,51.695414 53.7157437,51.151814 C52.9631437,50.608214 52.4012437,49.840914 52.1101437,48.959414 C52.0959437,48.911914 52.0667437,48.870314 52.0269437,48.840814 C51.9872437,48.811214 51.9390437,48.795314 51.8894437,48.795314 C51.8399437,48.795314 51.7916437,48.811214 51.7519437,48.840814 C51.7121437,48.870314 51.6830437,48.911914 51.6687437,48.959414 C51.3775437,49.841114 50.8157437,50.608514 50.0631437,51.152514 C49.3106437,51.696514 48.4057437,51.989314 47.4771437,51.989314 C46.5485437,51.989314 45.6436437,51.696514 44.8910437,51.152514 C44.1385437,50.608514 43.5767437,49.841114 43.2855437,48.959414 C43.2712437,48.911914 43.2420437,48.870314 43.2023437,48.840814 C43.1625437,48.811214 43.1143437,48.795314 43.0648437,48.795314 C43.0152437,48.795314 42.9670437,48.811214 42.9272437,48.840814 C42.8875437,48.870314 42.8583437,48.911914 42.8440437,48.959414 C42.5088437,49.947014 41.8347437,50.784114 40.9412437,51.322114 C40.0477437,51.860114 38.9925437,52.064414 37.9627437,51.898714 C36.9330437,51.733014 35.9952437,51.208114 35.3155437,50.416914 C34.6359437,49.625714 34.2584437,48.619414 34.2499437,47.576514 L30.5661437,47.576514 C30.5576437,48.619414 30.1801437,49.625714 29.5004437,50.416914 C28.8208437,51.208114 27.8830437,51.733014 26.8533437,51.898714 C25.8235437,52.064414 24.7683437,51.860114 23.8748437,51.322114 C22.9813437,50.784114 22.3072437,49.947014 21.9719437,48.959414 C21.9577437,48.911914 21.9285437,48.870314 21.8887437,48.840814 C21.8490437,48.811214 21.8008437,48.795314 21.7512437,48.795314 C21.7017437,48.795314 21.6535437,48.811214 21.6137437,48.840814 C21.5739437,48.870314 21.5448437,48.911914 21.5305437,48.959414 C21.2384437,49.839714 20.6764437,50.605614 19.9244437,51.148414 C19.1723437,51.691314 18.2684437,51.983514 17.3409437,51.983514 C16.4133437,51.983514 15.5094437,51.691314 14.7573437,51.148414 C14.0053437,50.605614 13.4433437,49.839714 13.1512437,48.959414 C13.1358437,48.912514 13.1059437,48.871614 13.0660437,48.842714 C13.0260437,48.813714 12.9779437,48.798214 12.9285437,48.798214 C12.8792437,48.798214 12.8311437,48.813714 12.7911437,48.842714 C12.7511437,48.871614 12.7213437,48.912514 12.7059437,48.959414 C12.3706437,49.947014 11.6965437,50.784114 10.8030437,51.322114 C9.90954368,51.860114 8.85433368,52.064414 7.82458368,51.898714 C6.79483368,51.733014 5.85701368,51.208114 5.17738368,50.416914 C4.49775368,49.625714 4.12023368,48.619414 4.11173368,47.576514 L4.11173368,47.576514 C0.20528968,63.202214 16.7881437,77.757614 32.4256437,77.757614 C48.0631437,77.757614 64.5912437,63.221814 60.7356437,47.576514 C60.7356437,48.157614 60.6207437,48.733114 60.3976437,49.269714 C60.1745437,49.806314 59.8475437,50.293514 59.4355437,50.703414 C59.0235437,51.113214 58.5345437,51.437614 57.9967437,51.657914 C57.4589437,51.878114 56.8829437,51.989914 56.3017437,51.986914 L56.3017437,51.986914 Z" id="Path" fill="#003451"></path>
                <path d="M21.8938437,57.588714 C21.9474437,57.578014 22.0028437,57.580814 22.0551437,57.596614 C22.1074437,57.612514 22.1550437,57.640914 22.1936437,57.679614 C22.2323437,57.718214 22.2608437,57.765814 22.2766437,57.818114 C22.2925437,57.870414 22.2952437,57.925814 22.2845437,57.979414 L22.2845437,59.381814 C22.2942437,59.435314 22.2908437,59.490314 22.2746437,59.542114 C22.2584437,59.594014 22.2299437,59.641114 22.1915437,59.679514 C22.1531437,59.717914 22.1059437,59.746414 22.0541437,59.762614 C22.0022437,59.778814 21.9472437,59.782214 21.8938437,59.772514 L18.7452437,59.772514 C18.6918437,59.762814 18.6368437,59.766114 18.5849437,59.782314 C18.5331437,59.798514 18.4860437,59.827014 18.4475437,59.865414 C18.4091437,59.903814 18.3806437,59.951014 18.3644437,60.002914 C18.3482437,60.054714 18.3449437,60.109714 18.3546437,60.163114 L18.3546437,60.553814 C18.3458437,60.607114 18.3498437,60.661614 18.3663437,60.713014 C18.3829437,60.764514 18.4114437,60.811214 18.4496437,60.849414 C18.4878437,60.887614 18.5345437,60.916114 18.5859437,60.932614 C18.6373437,60.949214 18.6919437,60.953214 18.7452437,60.944414 L20.8078437,60.944414 C20.8614437,60.933714 20.9168437,60.936414 20.9691437,60.952214 C21.0214437,60.968114 21.0690437,60.996614 21.1076437,61.035214 C21.1463437,61.073814 21.1748437,61.121414 21.1906437,61.173714 C21.2065437,61.226014 21.2092437,61.281514 21.1985437,61.335114 L21.1985437,62.737514 C21.2073437,62.790714 21.2032437,62.845314 21.1867437,62.896714 C21.1702437,62.948114 21.1416437,62.994914 21.1034437,63.033114 C21.0653437,63.071214 21.0185437,63.099814 20.9671437,63.116314 C20.9157437,63.132814 20.8611437,63.136914 20.8078437,63.128114 L18.7452437,63.128114 C18.6918437,63.118414 18.6368437,63.121814 18.5849437,63.138014 C18.5331437,63.154214 18.4860437,63.182714 18.4475437,63.221114 C18.4091437,63.259514 18.3806437,63.306614 18.3644437,63.358514 C18.3482437,63.410314 18.3449437,63.465314 18.3546437,63.518714 L18.3546437,66.065714 C18.3643437,66.119214 18.3609437,66.174214 18.3447437,66.226014 C18.3285437,66.277914 18.3000437,66.325014 18.2616437,66.363414 C18.2232437,66.401814 18.1760437,66.430314 18.1242437,66.446514 C18.0724437,66.462714 18.0174437,66.466114 17.9639437,66.456414 L16.4873437,66.456414 C16.4342437,66.464314 16.3799437,66.459614 16.3289437,66.442814 C16.2779437,66.426014 16.2316437,66.397414 16.1936437,66.359414 C16.1556437,66.321514 16.1271437,66.275114 16.1102437,66.224114 C16.0934437,66.173114 16.0887437,66.118914 16.0967437,66.065714 L16.0967437,57.963814 C16.0879437,57.910514 16.0919437,57.855914 16.1084437,57.804514 C16.1249437,57.753114 16.1535437,57.706314 16.1917437,57.668114 C16.2298437,57.630014 16.2766437,57.601414 16.3280437,57.584914 C16.3794437,57.568414 16.4340437,57.564414 16.4873437,57.573214 L21.8938437,57.588714 Z" id="Path" fill="#ABDFEE"></path>
                <path d="M26.7847437,57.588714 C26.8383437,57.578014 26.8937437,57.580814 26.9460437,57.596614 C26.9983437,57.612514 27.0458437,57.640914 27.0845437,57.679614 C27.1231437,57.718214 27.1516437,57.765814 27.1675437,57.818114 C27.1833437,57.870414 27.1860437,57.925814 27.1753437,57.979414 L27.1753437,63.839014 C27.1665437,63.892314 27.1706437,63.947014 27.1871437,63.998414 C27.2036437,64.049814 27.2321437,64.096514 27.2703437,64.134714 C27.3085437,64.172914 27.3552437,64.201414 27.4066437,64.218014 C27.4581437,64.234514 27.5127437,64.238514 27.5660437,64.229714 L30.3512437,64.229714 C30.4048437,64.219014 30.4602437,64.221714 30.5125437,64.237614 C30.5648437,64.253414 30.6124437,64.281914 30.6511437,64.320514 C30.6897437,64.359214 30.7182437,64.406814 30.7341437,64.459114 C30.7499437,64.511414 30.7526437,64.566714 30.7419437,64.620314 L30.7419437,66.018914 C30.7526437,66.072514 30.7499437,66.127814 30.7341437,66.180114 C30.7182437,66.232414 30.6897437,66.280014 30.6511437,66.318714 C30.6124437,66.357314 30.5648437,66.385814 30.5125437,66.401614 C30.4602437,66.417514 30.4048437,66.420214 30.3512437,66.409514 L25.3940437,66.409514 C25.3407437,66.418314 25.2861437,66.414314 25.2347437,66.397714 C25.1833437,66.381214 25.1365437,66.352714 25.0983437,66.314514 C25.0602437,66.276314 25.0316437,66.229614 25.0151437,66.178114 C24.9986437,66.126714 24.9945437,66.072214 25.0033437,66.018914 L25.0033437,57.963814 C24.9945437,57.910514 24.9986437,57.855914 25.0151437,57.804514 C25.0316437,57.753114 25.0602437,57.706314 25.0983437,57.668114 C25.1365437,57.630014 25.1833437,57.601414 25.2347437,57.584914 C25.2861437,57.568414 25.3407437,57.564414 25.3940437,57.573214 L26.7847437,57.588714 Z" id="Path" fill="#ABDFEE"></path>
                <path d="M36.6445437,57.588614 C38.9883437,57.588614 39.7696437,58.541814 39.7696437,60.588814 L39.7696437,63.323314 C39.7696437,65.374114 38.9883437,66.335114 36.6445437,66.335114 L33.8592437,66.335114 C33.8059437,66.343914 33.7513437,66.339914 33.6999437,66.323314 C33.6485437,66.306814 33.6017437,66.278314 33.5636437,66.240114 C33.5254437,66.201914 33.4968437,66.155214 33.4803437,66.103814 C33.4638437,66.052414 33.4597437,65.997814 33.4685437,65.944514 L33.4685437,57.959714 C33.4615437,57.906814 33.4667437,57.852814 33.4838437,57.802214 C33.5010437,57.751614 33.5295437,57.705614 33.5673437,57.667814 C33.6051437,57.630114 33.6511437,57.601514 33.7017437,57.584414 C33.7523437,57.567214 33.8062437,57.562014 33.8592437,57.569114 L36.6445437,57.588614 Z M36.6835437,64.190514 C37.2812437,64.190514 37.5820437,64.088914 37.5820437,63.338914 L37.5820437,60.604414 C37.5820437,59.823114 37.2812437,59.756714 36.6835437,59.756714 L36.0077437,59.756714 C35.9543437,59.747014 35.8993437,59.750414 35.8475437,59.766614 C35.7956437,59.782814 35.7485437,59.811314 35.7101437,59.849714 C35.6717437,59.888114 35.6431437,59.935214 35.6269437,59.987114 C35.6107437,60.038914 35.6074437,60.093914 35.6171437,60.147314 L35.6171437,63.846714 C35.6083437,63.900014 35.6123437,63.954614 35.6289437,64.006014 C35.6454437,64.057414 35.6739437,64.104214 35.7121437,64.142414 C35.7503437,64.180614 35.7970437,64.209114 35.8484437,64.225614 C35.8998437,64.242114 35.9544437,64.246214 36.0077437,64.237414 L36.6835437,64.190514 Z" id="Shape" fill="#FFFFFF"></path>
                <path d="M42.7699437,60.401314 C42.7699437,59.577014 42.9456437,57.365914 45.8950437,57.365914 C48.5592437,57.365914 48.9733437,59.151214 49.0202437,60.100514 C49.0280437,60.182414 49.0040437,60.264314 48.9531437,60.329114 C48.9021437,60.393814 48.8282437,60.436514 48.7467437,60.448114 L47.3599437,60.760614 C47.3008437,60.772514 47.2399437,60.771514 47.1812437,60.757614 C47.1226437,60.743714 47.0676437,60.717414 47.0201437,60.680314 C46.9726437,60.643214 46.9337437,60.596214 46.9060437,60.542614 C46.8784437,60.489114 46.8627437,60.430214 46.8599437,60.370014 C46.8658437,60.245614 46.8441437,60.121514 46.7964437,60.006514 C46.7487437,59.891514 46.6761437,59.788414 46.5839437,59.704814 C46.4917437,59.621214 46.3821437,59.559014 46.2630437,59.522714 C46.1439437,59.486414 46.0182437,59.476914 45.8950437,59.494914 C44.9731437,59.494914 44.9106437,60.084814 44.9106437,61.057514 L44.9106437,62.858414 C44.9106437,63.819414 44.9731437,64.421014 45.8950437,64.421014 C46.5825437,64.421014 46.7700437,64.092814 46.8482437,63.518614 C46.8505437,63.460714 46.8657437,63.404014 46.8927437,63.352714 C46.9197437,63.301414 46.9577437,63.256714 47.0041437,63.221914 C47.0505437,63.187214 47.1040437,63.163114 47.1608437,63.151614 C47.2176437,63.140114 47.2763437,63.141314 47.3326437,63.155314 L48.7467437,63.467814 C48.8304437,63.481314 48.9056437,63.526714 48.9566437,63.594414 C49.0075437,63.662114 49.0303437,63.746914 49.0202437,63.831114 C48.9733437,64.780314 48.5592437,66.565614 45.8950437,66.565614 C42.9339437,66.565614 42.7699437,64.354614 42.7699437,63.526414 L42.7699437,60.401314 Z" id="Path" fill="#FFFFFF"></path>
            </g>
        </g>
    </g>
</svg>
