<svg width="211" height="80" viewBox="0 0 211 80" fill="none" xmlns="http://www.w3.org/2000/svg">
<path d="M99.28 23.6V29.104H89.296V32.048H96.496V37.552H89.296V46H83.6V23.6H99.28ZM108.298 23.6V40.496H117.354V46H102.794V23.6H108.298ZM136.669 30.8C136.669 28.688 136.221 23.024 128.637 23.024C121.053 23.024 120.605 28.688 120.605 30.8V38.8C120.605 40.912 121.053 46.576 128.637 46.576C136.221 46.576 136.669 40.912 136.669 38.8V30.8ZM131.165 37.104C131.165 39.568 131.005 41.072 128.637 41.072C126.269 41.072 126.109 39.568 126.109 37.104V32.496C126.109 30.032 126.269 28.528 128.637 28.528C131.005 28.528 131.165 30.032 131.165 32.496V37.104ZM154.494 37.744C156.478 36.304 157.15 34.32 157.15 31.28C157.15 26.032 154.846 23.6 149.15 23.6H141.15V46H146.718V38.992H149.182L152.798 46H158.942L154.494 37.744ZM149.342 29.136C150.878 29.104 151.646 29.296 151.646 31.28C151.646 33.264 150.878 33.456 149.342 33.456H146.718V29.136H149.342ZM167.784 23.6V46H162.344V23.6H167.784ZM172.569 23.6V46H180.665C186.681 46 188.665 43.536 188.665 38.288V31.28C188.665 26.032 186.681 23.6 180.665 23.6H172.569ZM178.073 40.496V29.104H180.761C182.297 29.104 183.065 29.296 183.065 31.28C183.065 31.312 183.065 38.288 183.065 38.32C183.065 40.24 182.297 40.496 180.761 40.496H178.073ZM208.657 46H203.153V41.296H198.481V46H192.977V31.344C192.977 27.312 193.617 23.024 200.817 23.024C208.017 23.024 208.657 27.312 208.657 31.344V46ZM203.153 31.344C203.153 29.808 202.929 29.04 200.817 29.04C198.705 29.04 198.481 29.808 198.481 31.344V35.76H203.153V31.344Z" fill="#003451"/>
<path d="M83.176 65H86.998C90.078 65 92.206 62.858 92.206 60.1V60.072C92.206 57.314 90.078 55.2 86.998 55.2H83.176V65ZM85.332 63.054V57.146H86.998C88.762 57.146 89.952 58.364 89.952 60.1V60.128C89.952 61.864 88.762 63.054 86.998 63.054H85.332ZM94.8272 65H96.9832V61.864H98.6492H98.6772L100.777 65H103.297L100.903 61.5C102.149 61.038 103.003 60.044 103.003 58.462V58.434C103.003 57.51 102.709 56.74 102.163 56.194C101.519 55.55 100.553 55.2 99.3072 55.2H94.8272V65ZM96.9832 59.96V57.146H99.1252C100.175 57.146 100.819 57.622 100.819 58.546V58.574C100.819 59.4 100.217 59.96 99.1672 59.96H96.9832ZM109.732 65.154C112.364 65.154 114.03 63.698 114.03 60.73V55.2H111.874V60.814C111.874 62.368 111.076 63.166 109.76 63.166C108.444 63.166 107.646 62.34 107.646 60.744V55.2H105.49V60.8C105.49 63.684 107.1 65.154 109.732 65.154ZM116.926 65H119.082V62.06H120.72C122.918 62.06 124.682 60.884 124.682 58.616V58.588C124.682 56.586 123.268 55.2 120.93 55.2H116.926V65ZM119.082 60.142V57.146H120.748C121.826 57.146 122.498 57.664 122.498 58.63V58.658C122.498 59.498 121.868 60.142 120.79 60.142H119.082ZM126.138 65H128.336L129.232 62.802H133.376L134.272 65H136.526L132.326 55.13H130.338L126.138 65ZM130.002 60.898L131.304 57.72L132.606 60.898H130.002ZM138.739 65H145.781V63.04H140.895V55.2H138.739V65ZM157.596 65.168C159.486 65.168 160.606 64.496 161.614 63.418L160.242 62.032C159.472 62.732 158.786 63.18 157.666 63.18C155.986 63.18 154.824 61.78 154.824 60.1V60.072C154.824 58.392 156.014 57.02 157.666 57.02C158.646 57.02 159.416 57.44 160.172 58.126L161.544 56.544C160.634 55.648 159.528 55.032 157.68 55.032C154.67 55.032 152.57 57.314 152.57 60.1V60.128C152.57 62.942 154.712 65.168 157.596 65.168ZM163.2 65H165.398L166.294 62.802H170.438L171.334 65H173.588L169.388 55.13H167.4L163.2 65ZM167.064 60.898L168.366 57.72L169.668 60.898H167.064ZM175.8 65H177.914V58.644L180.644 62.788H180.7L183.458 58.602V65H185.6V55.2H183.276L180.7 59.344L178.124 55.2H175.8V65ZM188.655 65H190.811V62.06H192.449C194.647 62.06 196.411 60.884 196.411 58.616V58.588C196.411 56.586 194.997 55.2 192.659 55.2H188.655V65ZM190.811 60.142V57.146H192.477C193.555 57.146 194.227 57.664 194.227 58.63V58.658C194.227 59.498 193.597 60.142 192.519 60.142H190.811Z" fill="#F96320"/>
<g clip-path="url(#clip0_201:90)">
<path d="M60.7475 45.2678C60.3681 40.3996 58.715 35.7167 55.9543 31.689C55.0509 30.345 54.0481 29.0705 52.9542 27.8763C50.3252 24.7981 47.7039 21.712 45.0554 18.6493C44.2272 17.6883 43.3834 16.7352 42.5709 15.7664C40.5864 13.3952 38.5433 11.0787 36.5589 8.70746C35.3088 7.2191 34.0275 5.75028 32.7657 4.26584C32.5938 4.0588 32.4962 4.03926 32.3087 4.26584C30.7721 6.08884 29.2304 7.90401 27.6834 9.71139L20.2065 18.4501C17.5397 21.5753 14.8729 24.69 12.2061 27.7943C10.7724 29.371 9.47967 31.0703 8.34264 32.8727C6.90361 35.2787 5.82319 37.8818 5.13546 40.5996C4.64903 42.5312 4.35075 44.5054 4.24479 46.4944C4.05629 51.5178 5.21487 56.5001 7.60042 60.9248C8.19156 62.0692 8.87621 63.1628 9.64739 64.1945C13.5856 69.6392 19.3355 73.5019 25.865 75.0891C32.3945 76.6764 39.276 75.8843 45.2741 72.8551C46.6036 72.18 47.875 71.3961 49.0751 70.5112C50.2135 69.6934 51.293 68.7966 52.3057 67.8275C54.7841 65.4158 56.7958 62.5671 58.2396 59.4248C59.2777 57.1531 60.0233 54.7589 60.4585 52.2994C60.8623 49.9783 60.9595 47.6142 60.7475 45.2678Z" fill="#003451"/>
<path d="M32.5782 80.0001C29.9677 79.996 27.3672 79.6799 24.8317 79.0587C17.3837 77.2241 10.8263 72.8106 6.32299 66.601C5.44368 65.4122 4.65994 64.1556 3.97913 62.843C1.24852 57.7681 -0.0708209 52.0537 0.15863 46.2953C0.273541 44.0414 0.608482 41.8041 1.15868 39.6153C1.94306 36.5139 3.17618 33.5436 4.81901 30.7985C6.07629 28.7801 7.51458 26.8802 9.1161 25.1224L15.0383 18.208L18.7259 13.9109L24.5856 7.05511C26.1273 5.25294 27.6652 3.44561 29.1991 1.63302C29.605 1.13221 30.1168 0.727449 30.6976 0.44783C31.2785 0.168212 31.914 0.0206687 32.5587 0.0157471C33.1989 0.0193112 33.8305 0.163955 34.4085 0.439438C34.9865 0.714921 35.4966 1.11445 35.9026 1.60956C36.4234 2.22678 36.9508 2.84399 37.4847 3.46121C38.2269 4.32844 38.9691 5.19178 39.7035 6.06682C40.6645 7.21141 41.6568 8.36772 42.6217 9.48887C43.6373 10.6608 44.6921 11.8991 45.7195 13.1296C46.282 13.8016 46.8601 14.4656 47.4383 15.1297L48.161 15.9618C50.3447 18.4893 52.544 21.0675 54.6691 23.5598L56.5403 25.7514C57.5863 26.9075 58.541 28.143 59.3959 29.4469C62.5258 34.0448 64.4027 39.3794 64.8415 44.9242C65.0769 47.6192 64.9613 50.3335 64.4977 52.9988C64.003 55.7979 63.155 58.523 61.9742 61.1086C60.3224 64.7132 58.0209 67.9827 55.1848 70.7536C54.0344 71.8596 52.8073 72.883 51.5127 73.8162C50.1325 74.8317 48.6719 75.7332 47.1453 76.5117C43.9342 78.134 40.4752 79.21 36.9104 79.6954C35.4753 79.8986 34.0276 80.0004 32.5782 80.0001ZM32.5508 10.3209L30.8008 12.3718L24.9411 19.2276L21.2534 23.5247C19.2768 25.8321 17.3001 28.1395 15.3234 30.4469C14.0494 31.8442 12.898 33.3485 11.8819 34.9432C10.6423 37.0103 9.71184 39.2477 9.12001 41.5841C8.69345 43.2578 8.43178 44.9692 8.33872 46.6938C8.183 50.9494 9.16324 55.1697 11.1787 58.9209L11.2725 59.1007C11.7662 60.0417 12.3344 60.9418 12.9718 61.7922C16.3305 66.4157 21.2143 69.7043 26.7615 71.0778C32.3535 72.4571 38.2543 71.792 43.399 69.2027C44.53 68.6284 45.6118 67.962 46.6336 67.2104C47.6152 66.5058 48.5471 65.7344 49.4228 64.9017C51.5487 62.8372 53.271 60.3943 54.5011 57.6982C55.3969 55.7396 56.0388 53.6746 56.4114 51.5534C56.7535 49.5895 56.8349 47.5891 56.6536 45.6039C56.3418 41.4395 54.929 37.4328 52.5596 33.994L52.4659 33.8494C51.8196 32.8851 51.1014 31.971 50.3173 31.1149L48.4149 28.8882C46.2976 26.4076 44.1178 23.8411 41.9458 21.3371L41.2388 20.5207C40.6255 19.8175 40.0161 19.1143 39.4184 18.4033C38.4222 17.2314 37.387 16.0087 36.387 14.8446C35.3869 13.6805 34.3986 12.5281 33.4103 11.3483L32.5508 10.3209Z" fill="#003451"/>
<path d="M60.7475 45.2678C60.3681 40.3996 58.715 35.7167 55.9543 31.689C55.0509 30.345 54.0481 29.0705 52.9542 27.8763C50.3252 24.7981 47.7039 21.712 45.0554 18.6493C44.2272 17.6883 43.3834 16.7352 42.5709 15.7664C40.5864 13.3952 38.5433 11.0787 36.5589 8.70746C35.3088 7.2191 34.0275 5.75028 32.7657 4.26584C32.5938 4.0588 32.4962 4.03926 32.3087 4.26584C30.7721 6.08884 29.2304 7.90401 27.6834 9.71139L20.2065 18.4501C17.5397 21.5753 14.8729 24.69 12.2061 27.7943C10.7724 29.371 9.47967 31.0703 8.34264 32.8727C6.90361 35.2787 5.82319 37.8818 5.13546 40.5996C4.64903 42.5312 4.35075 44.5054 4.24479 46.4944C4.05629 51.5178 5.21487 56.5001 7.60042 60.9248C8.19156 62.0692 8.87621 63.1628 9.64739 64.1945C13.5856 69.6392 19.3355 73.5019 25.865 75.0891C32.3945 76.6764 39.276 75.8843 45.2741 72.8551C46.6036 72.18 47.875 71.3961 49.0751 70.5112C50.2135 69.6934 51.293 68.7966 52.3057 67.8275C54.7841 65.4158 56.7958 62.5671 58.2396 59.4248C59.2777 57.1531 60.0233 54.7589 60.4585 52.2994C60.8623 49.9783 60.9595 47.6142 60.7475 45.2678Z" fill="url(#paint0_linear_201:90)"/>
<path d="M32.5352 67.0267C43.2686 67.0267 51.9698 58.3255 51.9698 47.5921C51.9698 36.8587 43.2686 28.1576 32.5352 28.1576C21.8018 28.1576 13.1007 36.8587 13.1007 47.5921C13.1007 58.3255 21.8018 67.0267 32.5352 67.0267Z" fill="#F68958"/>
<path d="M42.4693 33.408L44.6452 31.2321C44.6754 31.2026 44.6995 31.1673 44.7159 31.1284C44.7323 31.0895 44.7407 31.0477 44.7407 31.0055C44.7407 30.9633 44.7323 30.9215 44.7159 30.8826C44.6995 30.8436 44.6754 30.8084 44.6452 30.7789C43.6087 29.8099 42.3709 29.0818 41.0202 28.6469C39.6696 28.212 38.2395 28.081 36.8323 28.2632C36.7651 28.2735 36.6963 28.2616 36.6364 28.2293C36.5766 28.197 36.5289 28.1461 36.5006 28.0842C36.4723 28.0223 36.465 27.9529 36.4797 27.8865C36.4945 27.8201 36.5305 27.7603 36.5823 27.7163C37.5611 26.9104 38.7732 26.4406 40.0395 26.3764C40.1207 26.3734 40.1976 26.3392 40.2544 26.281C40.3111 26.2229 40.3432 26.1451 40.3442 26.0638V22.9856C40.3448 22.9437 40.3368 22.9022 40.3208 22.8635C40.3048 22.8248 40.2811 22.7898 40.2511 22.7605C40.2212 22.7313 40.1856 22.7085 40.1465 22.6934C40.1074 22.6784 40.0657 22.6715 40.0239 22.6731C38.6263 22.7191 37.2554 23.069 36.0067 23.6984C34.758 24.3278 33.6614 25.2217 32.7931 26.3178C32.7638 26.3551 32.7265 26.3853 32.6838 26.4061C32.6412 26.4269 32.5944 26.4377 32.5469 26.4377C32.4995 26.4377 32.4527 26.4269 32.4101 26.4061C32.3674 26.3853 32.3301 26.3551 32.3008 26.3178C31.4336 25.2214 30.3378 24.3273 29.0896 23.6978C27.8415 23.0683 26.4711 22.7186 25.0739 22.6731C25.0321 22.6715 24.9904 22.6784 24.9513 22.6934C24.9122 22.7085 24.8766 22.7313 24.8467 22.7605C24.8167 22.7898 24.793 22.8248 24.777 22.8635C24.761 22.9022 24.753 22.9437 24.7536 22.9856V26.0638C24.7535 26.1447 24.7849 26.2225 24.8409 26.2808C24.897 26.3391 24.9736 26.3733 25.0544 26.3764C26.3191 26.4392 27.53 26.9077 28.5077 27.7123C28.5596 27.7553 28.596 27.8141 28.6114 27.8798C28.6268 27.9454 28.6202 28.0142 28.5928 28.0758C28.5653 28.1374 28.5184 28.1883 28.4593 28.2207C28.4002 28.2531 28.3322 28.2653 28.2655 28.2553C27.8574 28.2035 27.4464 28.1775 27.0349 28.1772C24.5857 28.1702 22.227 29.1027 20.4448 30.7828C20.3861 30.8421 20.3532 30.9221 20.3532 31.0055C20.3532 31.0889 20.3861 31.1689 20.4448 31.2281L22.6246 33.408C22.6822 33.4638 22.7592 33.495 22.8394 33.495C22.9196 33.495 22.9967 33.4638 23.0543 33.408C24.1459 32.4199 25.5665 31.874 27.0389 31.8766C27.1912 31.8766 27.3397 31.8766 27.4881 31.8766C26.1348 32.7126 25.009 33.87 24.211 35.246C23.4129 36.622 22.9673 38.174 22.9137 39.7638C22.9121 39.8056 22.919 39.8473 22.934 39.8864C22.9491 39.9254 22.9719 39.961 23.0012 39.991C23.0304 40.0209 23.0654 40.0446 23.1041 40.0606C23.1428 40.0766 23.1843 40.0846 23.2262 40.0841H26.3044C26.3857 40.0831 26.4635 40.0509 26.5217 39.9942C26.5798 39.9375 26.614 39.8605 26.617 39.7793C26.6748 38.6608 27.0477 37.5814 27.6926 36.6655C28.3375 35.7497 29.2281 35.0348 30.2617 34.6033C30.3094 34.5828 30.3614 34.5743 30.4132 34.5787C30.4649 34.583 30.5148 34.6 30.5584 34.6282C30.602 34.6564 30.6381 34.6949 30.6633 34.7403C30.6885 34.7857 30.7022 34.8365 30.7031 34.8885V54.5222C30.7031 54.5631 30.7112 54.6036 30.727 54.6413C30.7427 54.679 30.7658 54.7132 30.7949 54.7419C30.8239 54.7706 30.8584 54.7932 30.8963 54.8085C30.9342 54.8238 30.9748 54.8314 31.0156 54.8309H34.09C34.1308 54.8314 34.1714 54.8238 34.2093 54.8085C34.2472 54.7932 34.2817 54.7706 34.3107 54.7419C34.3398 54.7132 34.3629 54.679 34.3786 54.6413C34.3944 54.6036 34.4025 54.5631 34.4025 54.5222V34.8885C34.4027 34.8367 34.4158 34.7858 34.4405 34.7403C34.4653 34.6948 34.501 34.6562 34.5444 34.6279C34.5878 34.5996 34.6375 34.5826 34.6891 34.5783C34.7407 34.574 34.7926 34.5826 34.84 34.6033C35.8744 35.0342 36.7658 35.7489 37.4114 36.6647C38.057 37.5806 38.4304 38.6603 38.4886 39.7793C38.4907 39.8602 38.5239 39.9371 38.5815 39.9939C38.639 40.0508 38.7164 40.0831 38.7972 40.0841H41.8755C41.9176 40.0846 41.9593 40.0766 41.9982 40.0607C42.0371 40.0447 42.0723 40.0211 42.1019 39.9912C42.1314 39.9613 42.1546 39.9257 42.1701 39.8866C42.1856 39.8476 42.193 39.8058 42.1919 39.7638C42.1446 38.3433 41.7835 36.9509 41.1344 35.6866C40.4854 34.4222 39.5645 33.3172 38.4379 32.4509C38.3859 32.4077 38.3491 32.3491 38.3328 32.2836C38.3166 32.2181 38.3217 32.1491 38.3475 32.0867C38.3732 32.0243 38.4182 31.9718 38.476 31.9368C38.5337 31.9018 38.6011 31.8862 38.6683 31.8923C39.9253 32.0183 41.1092 32.5425 42.0474 33.3884C42.103 33.4431 42.1768 33.4753 42.2546 33.4789C42.3325 33.4825 42.4089 33.4572 42.4693 33.408Z" fill="#003451"/>
<path d="M56.4387 52.0026C55.511 52.0025 54.6069 51.7099 53.8551 51.1663C53.1032 50.6228 52.5419 49.856 52.251 48.9751C52.2368 48.9276 52.2076 48.886 52.1678 48.8565C52.1281 48.8269 52.0799 48.811 52.0303 48.811C51.9808 48.811 51.9326 48.8269 51.8928 48.8565C51.8531 48.886 51.8239 48.9276 51.8096 48.9751C51.5184 49.8568 50.9566 50.6242 50.204 51.1682C49.4515 51.7122 48.5466 52.005 47.618 52.005C46.6894 52.005 45.7845 51.7122 45.032 51.1682C44.2794 50.6242 43.7176 49.8568 43.4264 48.9751C43.4121 48.9276 43.3829 48.886 43.3432 48.8565C43.3034 48.8269 43.2552 48.811 43.2057 48.811C43.1561 48.811 43.1079 48.8269 43.0682 48.8565C43.0284 48.886 42.9992 48.9276 42.985 48.9751C42.6497 49.9627 41.9756 50.7998 41.0821 51.3378C40.1886 51.8759 39.1334 52.0801 38.1036 51.9144C37.0739 51.7487 36.1361 51.2238 35.4564 50.4326C34.7768 49.6414 34.3993 48.6351 34.3908 47.5922H30.707C30.6985 48.6351 30.321 49.6414 29.6414 50.4326C28.9617 51.2238 28.0239 51.7487 26.9942 51.9144C25.9644 52.0801 24.9092 51.8759 24.0157 51.3378C23.1222 50.7998 22.4481 49.9627 22.1128 48.9751C22.0986 48.9276 22.0694 48.886 22.0296 48.8565C21.9899 48.8269 21.9417 48.811 21.8921 48.811C21.8426 48.811 21.7944 48.8269 21.7546 48.8565C21.7149 48.886 21.6857 48.9276 21.6714 48.9751C21.3802 49.8568 20.8184 50.6242 20.0658 51.1682C19.3133 51.7122 18.4084 52.005 17.4798 52.005C16.5512 52.005 15.6463 51.7122 14.8938 51.1682C14.1412 50.6242 13.5794 49.8568 13.2882 48.9751C13.2739 48.9276 13.2447 48.886 13.205 48.8565C13.1652 48.8269 13.117 48.811 13.0675 48.811C13.0179 48.811 12.9697 48.8269 12.93 48.8565C12.8902 48.886 12.861 48.9276 12.8468 48.9751C12.5115 49.9627 11.8374 50.7998 10.9439 51.3378C10.0504 51.8759 8.9952 52.0801 7.96545 51.9144C6.93569 51.7487 5.99787 51.2238 5.31824 50.4326C4.63861 49.6414 4.26109 48.6351 4.25259 47.5922C4.25259 55.1035 7.23647 62.3073 12.5478 67.6186C17.8592 72.93 25.0629 75.9139 32.5743 75.9139C40.0857 75.9139 47.2894 72.93 52.6008 67.6186C57.9121 62.3073 60.896 55.1035 60.896 47.5922C60.896 48.1753 60.7804 48.7527 60.5558 49.2908C60.3313 49.829 60.0022 50.3173 59.5877 50.7275C59.1732 51.1376 58.6814 51.4615 58.1409 51.6804C57.6004 51.8992 57.0219 52.0087 56.4387 52.0026Z" fill="#003451"/>
<path d="M56.4348 52.0026C55.5064 52.0033 54.6015 51.7111 53.8488 51.1675C53.0962 50.6239 52.5343 49.8566 52.2432 48.9751C52.229 48.9276 52.1998 48.886 52.16 48.8565C52.1203 48.8269 52.0721 48.811 52.0225 48.811C51.973 48.811 51.9248 48.8269 51.885 48.8565C51.8452 48.886 51.8161 48.9276 51.8018 48.9751C51.5106 49.8568 50.9488 50.6242 50.1962 51.1682C49.4437 51.7122 48.5388 52.005 47.6102 52.005C46.6816 52.005 45.7767 51.7122 45.0242 51.1682C44.2716 50.6242 43.7098 49.8568 43.4186 48.9751C43.4043 48.9276 43.3751 48.886 43.3354 48.8565C43.2956 48.8269 43.2474 48.811 43.1979 48.811C43.1483 48.811 43.1001 48.8269 43.0603 48.8565C43.0206 48.886 42.9914 48.9276 42.9771 48.9751C42.6419 49.9627 41.9678 50.7998 41.0743 51.3378C40.1808 51.8758 39.1256 52.0801 38.0958 51.9144C37.0661 51.7487 36.1283 51.2238 35.4486 50.4326C34.769 49.6414 34.3915 48.6351 34.383 47.5922H30.6992C30.6907 48.6351 30.3132 49.6414 29.6336 50.4326C28.9539 51.2238 28.0161 51.7487 26.9864 51.9144C25.9566 52.0801 24.9014 51.8758 24.0079 51.3378C23.1144 50.7998 22.4403 49.9627 22.105 48.9751C22.0908 48.9276 22.0616 48.886 22.0218 48.8565C21.9821 48.8269 21.9339 48.811 21.8843 48.811C21.8348 48.811 21.7866 48.8269 21.7468 48.8565C21.7071 48.886 21.6779 48.9276 21.6636 48.9751C21.3715 49.8554 20.8095 50.6213 20.0575 51.1641C19.3054 51.707 18.4015 51.9992 17.474 51.9992C16.5464 51.9992 15.6425 51.707 14.8904 51.1641C14.1384 50.6213 13.5764 49.8554 13.2843 48.9751C13.2689 48.9282 13.2391 48.8873 13.1991 48.8584C13.1591 48.8294 13.111 48.8139 13.0616 48.8139C13.0123 48.8139 12.9642 48.8294 12.9242 48.8584C12.8842 48.8873 12.8544 48.9282 12.839 48.9751C12.5037 49.9627 11.8296 50.7998 10.9361 51.3378C10.0426 51.8758 8.9874 52.0801 7.95765 51.9144C6.92789 51.7487 5.99007 51.2238 5.31045 50.4326C4.63082 49.6414 4.25329 48.6351 4.24479 47.5922C0.338353 63.2179 16.9212 77.7733 32.5587 77.7733C48.1962 77.7733 64.7243 63.2375 60.8687 47.5922C60.8687 48.1733 60.7538 48.7488 60.5307 49.2854C60.3076 49.822 59.9806 50.3092 59.5686 50.7191C59.1566 51.1289 58.6676 51.4533 58.1298 51.6736C57.592 51.8938 57.016 52.0056 56.4348 52.0026Z" fill="#003451"/>
<path d="M22.0269 57.6045C22.0805 57.5938 22.1359 57.5965 22.1882 57.6124C22.2405 57.6282 22.2881 57.6567 22.3267 57.6953C22.3653 57.734 22.3939 57.7816 22.4097 57.8339C22.4255 57.8862 22.4282 57.9415 22.4175 57.9951V59.3976C22.4273 59.451 22.4239 59.506 22.4077 59.5578C22.3915 59.6097 22.363 59.6568 22.3246 59.6952C22.2862 59.7336 22.239 59.7622 22.1872 59.7783C22.1353 59.7945 22.0803 59.7979 22.0269 59.7882H18.8783C18.8249 59.7785 18.7699 59.7818 18.718 59.798C18.6662 59.8142 18.619 59.8428 18.5806 59.8812C18.5422 59.9196 18.5137 59.9667 18.4975 60.0186C18.4813 60.0704 18.4779 60.1254 18.4877 60.1789V60.5695C18.4789 60.6228 18.4829 60.6774 18.4994 60.7288C18.5159 60.7802 18.5445 60.8269 18.5827 60.8651C18.6208 60.9033 18.6676 60.9318 18.719 60.9484C18.7704 60.9649 18.825 60.9689 18.8783 60.9602H20.9409C20.9945 60.9494 21.0499 60.9521 21.1022 60.968C21.1545 60.9838 21.2021 61.0123 21.2407 61.0509C21.2794 61.0896 21.3079 61.1372 21.3237 61.1895C21.3396 61.2418 21.3422 61.2972 21.3315 61.3508V62.7532C21.3403 62.8065 21.3363 62.8611 21.3198 62.9125C21.3033 62.9639 21.2747 63.0106 21.2365 63.0488C21.1983 63.087 21.1516 63.1155 21.1002 63.1321C21.0488 63.1486 20.9942 63.1526 20.9409 63.1438H18.8783C18.8249 63.1341 18.7699 63.1375 18.718 63.1537C18.6662 63.1699 18.619 63.1984 18.5806 63.2368C18.5422 63.2752 18.5137 63.3224 18.4975 63.3742C18.4813 63.4261 18.4779 63.481 18.4877 63.5345V66.0815C18.4974 66.1349 18.494 66.1899 18.4778 66.2418C18.4616 66.2936 18.4331 66.3407 18.3947 66.3791C18.3563 66.4175 18.3091 66.4461 18.2573 66.4623C18.2054 66.4785 18.1505 66.4818 18.097 66.4721H16.6204C16.5673 66.48 16.513 66.4754 16.462 66.4585C16.411 66.4417 16.3646 66.4132 16.3267 66.3752C16.2887 66.3372 16.2601 66.2909 16.2433 66.2399C16.2265 66.1888 16.2218 66.1346 16.2297 66.0815V57.9795C16.2209 57.9263 16.225 57.8716 16.2415 57.8202C16.258 57.7688 16.2866 57.7221 16.3247 57.6839C16.3629 57.6457 16.4097 57.6171 16.4611 57.6006C16.5125 57.5841 16.5671 57.5801 16.6204 57.5889L22.0269 57.6045Z" fill="#ABDFEE"/>
<path d="M26.9177 57.6045C26.9713 57.5938 27.0267 57.5965 27.079 57.6124C27.1313 57.6282 27.1789 57.6567 27.2176 57.6953C27.2562 57.734 27.2847 57.7816 27.3006 57.8339C27.3164 57.8862 27.3191 57.9415 27.3084 57.9951V63.8548C27.2996 63.9081 27.3036 63.9627 27.3202 64.0141C27.3367 64.0655 27.3652 64.1123 27.4034 64.1504C27.4416 64.1886 27.4883 64.2172 27.5397 64.2337C27.5911 64.2502 27.6457 64.2542 27.699 64.2454H30.4843C30.5379 64.2347 30.5933 64.2375 30.6456 64.2533C30.6979 64.2691 30.7455 64.2976 30.7841 64.3363C30.8228 64.3749 30.8513 64.4225 30.8671 64.4748C30.883 64.5271 30.8857 64.5825 30.875 64.6361V66.0346C30.8857 66.0882 30.883 66.1436 30.8671 66.1959C30.8513 66.2482 30.8228 66.2958 30.7841 66.3344C30.7455 66.3731 30.6979 66.4015 30.6456 66.4174C30.5933 66.4332 30.5379 66.436 30.4843 66.4253H25.5271C25.4738 66.434 25.4192 66.43 25.3677 66.4135C25.3163 66.397 25.2696 66.3684 25.2314 66.3302C25.1932 66.292 25.1647 66.2453 25.1482 66.1939C25.1316 66.1425 25.1276 66.0879 25.1364 66.0346V57.9795C25.1276 57.9263 25.1316 57.8716 25.1482 57.8202C25.1647 57.7688 25.1932 57.7221 25.2314 57.6839C25.2696 57.6457 25.3163 57.6171 25.3677 57.6006C25.4192 57.5841 25.4738 57.5801 25.5271 57.5889L26.9177 57.6045Z" fill="#ABDFEE"/>
<path d="M36.7776 57.6044C39.1215 57.6044 39.9027 58.5575 39.9027 60.6045V63.339C39.9027 65.3899 39.1215 66.3509 36.7776 66.3509H33.9923C33.939 66.3597 33.8844 66.3556 33.833 66.3391C33.7816 66.3226 33.7349 66.2941 33.6967 66.2559C33.6585 66.2177 33.63 66.171 33.6134 66.1196C33.5969 66.0681 33.5929 66.0135 33.6017 65.9602V57.9755C33.5946 57.9225 33.5998 57.8686 33.6169 57.818C33.6341 57.7674 33.6626 57.7214 33.7004 57.6836C33.7382 57.6458 33.7842 57.6172 33.8348 57.6001C33.8854 57.583 33.9393 57.5778 33.9923 57.5849L36.7776 57.6044ZM36.8167 64.2062C37.4143 64.2062 37.7151 64.1047 37.7151 63.3547V60.6202C37.7151 59.8389 37.4143 59.7724 36.8167 59.7724H36.1408C36.0874 59.7627 36.0324 59.7661 35.9806 59.7823C35.9287 59.7985 35.8816 59.827 35.8432 59.8654C35.8048 59.9038 35.7762 59.951 35.7601 60.0028C35.7439 60.0547 35.7405 60.1097 35.7502 60.1631V63.8625C35.7414 63.9158 35.7455 63.9704 35.762 64.0218C35.7785 64.0732 35.807 64.1199 35.8452 64.1581C35.8834 64.1963 35.9301 64.2248 35.9815 64.2413C36.033 64.2579 36.0876 64.2619 36.1408 64.2531L36.8167 64.2062Z" fill="white"/>
<path d="M42.9029 60.4169C42.9029 59.5926 43.0787 57.3816 46.0281 57.3816C48.6923 57.3816 49.1064 59.1668 49.1532 60.1161C49.1611 60.1981 49.1371 60.28 49.0862 60.3447C49.0352 60.4095 48.9613 60.4521 48.8798 60.4638L47.493 60.7763C47.4339 60.7882 47.373 60.7871 47.3143 60.7733C47.2557 60.7594 47.2007 60.733 47.1532 60.6959C47.1057 60.6588 47.0668 60.6118 47.0391 60.5583C47.0115 60.5047 46.9957 60.4458 46.993 60.3856C46.9989 60.2613 46.9772 60.1371 46.9295 60.0221C46.8818 59.9071 46.8092 59.8041 46.717 59.7204C46.6247 59.6368 46.5152 59.5746 46.3961 59.5383C46.2769 59.5021 46.1513 59.4926 46.0281 59.5106C45.1062 59.5106 45.0437 60.1005 45.0437 61.0732V62.874C45.0437 63.835 45.1062 64.4366 46.0281 64.4366C46.7156 64.4366 46.9031 64.1085 46.9813 63.5342C46.9836 63.4763 46.9988 63.4196 47.0258 63.3683C47.0528 63.317 47.0908 63.2724 47.1372 63.2376C47.1836 63.2028 47.2371 63.1788 47.2939 63.1672C47.3507 63.1557 47.4094 63.157 47.4657 63.1709L48.8798 63.4834C48.9635 63.497 49.0387 63.5423 49.0896 63.6101C49.1406 63.6778 49.1634 63.7626 49.1532 63.8467C49.1064 64.796 48.6923 66.5812 46.0281 66.5812C43.067 66.5812 42.9029 64.3702 42.9029 63.5421V60.4169Z" fill="white"/>
</g>
<defs>
<linearGradient id="paint0_linear_201:90" x1="32.5352" y1="4.30881" x2="32.5352" y2="76.535" gradientUnits="userSpaceOnUse">
<stop stop-color="#ABDFEE"/>
<stop offset="0.24" stop-color="#AFDDEA"/>
<stop offset="0.46" stop-color="#BAD6DF"/>
<stop offset="0.67" stop-color="#CCCBCD"/>
<stop offset="0.88" stop-color="#E6BBB3"/>
<stop offset="1" stop-color="#F9AFA0"/>
</linearGradient>
<clipPath id="clip0_201:90">
<rect width="65.0704" height="80" fill="white"/>
</clipPath>
</defs>
</svg>
