<svg xmlns="http://www.w3.org/2000/svg" width="209" height="281" viewBox="0 0 209 281" fill="none">
  <path d="M189.534 92.1353L208.181 73.4603C208.44 73.2073 208.646 72.9049 208.787 72.571C208.928 72.237 209 71.8783 209 71.5159C209 71.1534 208.928 70.7947 208.787 70.4608C208.646 70.1268 208.44 69.8244 208.181 69.5714C199.299 61.2543 188.69 55.0056 177.115 51.2729C165.54 47.5403 153.285 46.4157 141.225 47.9795C140.649 48.0682 140.06 47.9661 139.547 47.6889C139.034 47.4117 138.625 46.9745 138.382 46.4435C138.14 45.9125 138.077 45.317 138.204 44.7471C138.33 44.1771 138.639 43.6639 139.083 43.2856C147.471 36.3689 157.859 32.3373 168.711 31.7859C169.407 31.7601 170.066 31.4671 170.552 30.9678C171.038 30.4684 171.314 29.8009 171.322 29.1035V2.68388C171.327 2.32461 171.258 1.96816 171.121 1.63614C170.984 1.30412 170.781 1.00343 170.524 0.752526C170.268 0.501619 169.962 0.305769 169.628 0.176682C169.293 0.0475953 168.935 -0.0117527 168.577 0.00192377C156.599 0.397145 144.852 3.40004 134.15 8.80206C123.449 14.2041 114.051 21.8755 106.609 31.2829C106.359 31.6035 106.038 31.8626 105.673 32.0409C105.308 32.2192 104.906 32.3122 104.5 32.3122C104.093 32.3122 103.692 32.2192 103.327 32.0409C102.961 31.8626 102.641 31.6035 102.391 31.2829C94.959 21.8729 85.5675 14.1993 74.8709 8.79674C64.1744 3.39423 52.43 0.392981 40.4565 0.00192377C40.098 -0.0117527 39.7404 0.0475953 39.4056 0.176682C39.0708 0.305769 38.7657 0.501619 38.5089 0.752526C38.2521 1.00343 38.0489 1.30412 37.9118 1.63614C37.7747 1.96816 37.7065 2.32461 37.7113 2.68388V29.1035C37.7108 29.7978 37.9792 30.4655 38.4599 30.9657C38.9407 31.4659 39.5964 31.7599 40.2891 31.7859C51.1277 32.3255 61.5046 36.3458 69.8837 43.252C70.3287 43.6209 70.641 44.1257 70.7726 44.689C70.9043 45.2523 70.8482 45.8431 70.6128 46.3715C70.3775 46.8998 69.9759 47.3366 69.4694 47.6148C68.9629 47.8931 68.3794 47.9976 67.8081 47.9124C64.3104 47.4678 60.7881 47.244 57.2624 47.242C36.2723 47.1812 16.0584 55.1853 0.785049 69.605C0.282125 70.1135 0 70.8001 0 71.5159C0 72.2316 0.282125 72.9182 0.785049 73.4267L19.4658 92.1353C19.9593 92.6146 20.6197 92.8827 21.3071 92.8827C21.9945 92.8827 22.6549 92.6146 23.1483 92.1353C32.5037 83.6556 44.6778 78.9698 57.2959 78.9924C58.6016 78.9924 59.8737 78.9924 61.1459 78.9924C49.548 86.1672 39.9004 96.101 33.061 107.911C26.2217 119.72 22.4025 133.04 21.9432 146.685C21.9295 147.044 21.989 147.401 22.1179 147.737C22.2468 148.072 22.4424 148.378 22.693 148.635C22.9435 148.892 23.2436 149.095 23.5752 149.233C23.9067 149.37 24.2626 149.438 24.6214 149.434H51.002C51.6984 149.426 52.3649 149.149 52.8635 148.663C53.3621 148.176 53.6546 147.515 53.6803 146.818C54.1764 137.218 57.3718 127.954 62.8983 120.094C68.4248 112.234 76.0572 106.098 84.9153 102.395C85.3241 102.218 85.77 102.146 86.2135 102.183C86.657 102.22 87.0845 102.366 87.4584 102.608C87.8322 102.85 88.1409 103.18 88.3571 103.57C88.5734 103.96 88.6906 104.396 88.6983 104.842V278C88.6983 278.351 88.7677 278.698 88.9027 279.022C89.0377 279.345 89.2355 279.639 89.4847 279.885C89.7338 280.132 90.0294 280.326 90.3541 280.457C90.6789 280.588 91.0264 280.653 91.3765 280.649H117.724C118.074 280.653 118.421 280.588 118.746 280.457C119.071 280.326 119.366 280.132 119.615 279.885C119.865 279.639 120.063 279.345 120.198 279.022C120.333 278.698 120.402 278.351 120.402 278V104.842C120.404 104.398 120.516 103.961 120.728 103.57C120.94 103.18 121.246 102.848 121.618 102.606C121.99 102.363 122.416 102.217 122.858 102.18C123.3 102.143 123.745 102.217 124.151 102.395C133.016 106.093 140.655 112.226 146.188 120.087C151.72 127.947 154.921 137.214 155.42 146.818C155.437 147.512 155.722 148.172 156.216 148.66C156.709 149.148 157.372 149.425 158.065 149.434H184.445C184.806 149.438 185.163 149.37 185.496 149.233C185.83 149.096 186.132 148.893 186.385 148.637C186.638 148.38 186.837 148.075 186.97 147.739C187.102 147.404 187.166 147.045 187.157 146.685C186.752 134.494 183.657 122.543 178.094 111.692C172.532 100.84 164.64 91.3565 154.985 83.9208C154.54 83.5508 154.224 83.0479 154.085 82.4855C153.945 81.9232 153.989 81.3312 154.21 80.7957C154.431 80.2601 154.816 79.8092 155.311 79.5089C155.806 79.2086 156.384 79.0747 156.96 79.1266C167.732 80.2086 177.878 84.7074 185.918 91.9675C186.395 92.4365 187.027 92.713 187.694 92.7439C188.361 92.7748 189.016 92.5582 189.534 92.1353Z" fill="black"/>
</svg>
