<svg width="66" height="80" viewBox="0 0 66 80" fill="none" xmlns="http://www.w3.org/2000/svg">
<g clip-path="url(#clip0_4_1060)">
<path d="M60.7474 45.2677C60.3679 40.3995 58.7149 35.7166 55.9542 31.6889C55.0508 30.3449 54.0479 29.0704 52.9541 27.8762C50.325 24.7979 47.7038 21.7119 45.0553 18.6492C44.2271 17.6882 43.3833 16.7351 42.5708 15.7663C40.5863 13.395 38.5432 11.0785 36.5588 8.70734C35.3087 7.21898 34.0274 5.75016 32.7656 4.26572C32.5937 4.05867 32.496 4.03914 32.3085 4.26572C30.772 6.08872 29.2303 7.90389 27.6833 9.71127L20.2064 18.45C17.5396 21.5751 14.8728 24.6899 12.206 27.7942C10.7723 29.3709 9.47956 31.0702 8.34253 32.8726C6.9035 35.2786 5.82307 37.8817 5.13535 40.5995C4.64891 42.5311 4.35063 44.5052 4.24468 46.4943C4.05618 51.5177 5.21476 56.4999 7.60031 60.9247C8.19145 62.0691 8.8761 63.1627 9.64728 64.1944C13.5855 69.6391 19.3354 73.5018 25.8649 75.089C32.3944 76.6763 39.2759 75.8842 45.274 72.855C46.6035 72.1799 47.8748 71.396 49.075 70.5111C50.2133 69.6932 51.2929 68.7965 52.3056 67.8274C54.784 65.4157 56.7957 62.567 58.2395 59.4246C59.2776 57.153 60.0232 54.7587 60.4583 52.2993C60.8622 49.9782 60.9594 47.6141 60.7474 45.2677Z" fill="black"/>
<path d="M32.5782 80C29.9677 79.9958 27.3671 79.6798 24.8317 79.0585C17.3837 77.224 10.8263 72.8104 6.32297 66.6009C5.44366 65.4121 4.65992 64.1555 3.97911 62.8429C1.2485 57.768 -0.0708438 52.0535 0.158607 46.2952C0.273518 44.0413 0.60846 41.804 1.15866 39.6152C1.94304 36.5137 3.17616 33.5434 4.81899 30.7983C6.07626 28.7799 7.51455 26.8801 9.11607 25.1223L15.0382 18.2079L18.7259 13.9108L24.5856 7.05499C26.1273 5.25282 27.6652 3.44549 29.1991 1.6329C29.605 1.13209 30.1168 0.727327 30.6976 0.447708C31.2785 0.16809 31.914 0.0205466 32.5586 0.015625C33.1989 0.0191891 33.8305 0.163833 34.4085 0.439315C34.9864 0.714798 35.4966 1.11433 35.9025 1.60944C36.4234 2.22665 36.9508 2.84387 37.4846 3.46108C38.2269 4.32831 38.9691 5.19166 39.7035 6.0667C40.6645 7.21129 41.6567 8.3676 42.6216 9.48874C43.6373 10.6607 44.692 11.899 45.7194 13.1295C46.282 13.8014 46.8601 14.4655 47.4383 15.1296L48.161 15.9617C50.3447 18.4892 52.544 21.0674 54.6691 23.5597L56.5403 25.7513C57.5863 26.9074 58.541 28.1429 59.3959 29.4467C62.5258 34.0447 64.4027 39.3793 64.8415 44.9241C65.0769 47.6191 64.9613 50.3334 64.4977 52.9987C64.003 55.7978 63.155 58.5228 61.9741 61.1085C60.3224 64.713 58.0208 67.9825 55.1847 70.7534C54.0344 71.8595 52.8073 72.8829 51.5127 73.8161C50.1325 74.8316 48.6718 75.7331 47.1453 76.5115C43.9342 78.1339 40.4752 79.2098 36.9104 79.6953C35.4753 79.8985 34.0276 80.0003 32.5782 80ZM32.5508 10.3208L30.8007 12.3717L24.9411 19.2275L21.2534 23.5246C19.2767 25.832 17.3001 28.1394 15.3234 30.4468C14.0494 31.8441 12.898 33.3484 11.8818 34.9431C10.6423 37.0102 9.71182 39.2475 9.11998 41.584C8.69343 43.2577 8.43176 44.9691 8.3387 46.6937C8.18298 50.9493 9.16321 55.1695 11.1787 58.9208L11.2724 59.1005C11.7662 60.0416 12.3344 60.9417 12.9717 61.7921C16.3305 66.4156 21.2143 69.7042 26.7615 71.0777C32.3535 72.4569 38.2543 71.7919 43.399 69.2026C44.53 68.6283 45.6118 67.9619 46.6335 67.2103C47.6152 66.5057 48.5471 65.7343 49.4227 64.9016C51.5487 62.8371 53.271 60.3941 54.5011 57.6981C55.3968 55.7395 56.0388 53.6745 56.4114 51.5533C56.7535 49.5894 56.8349 47.589 56.6536 45.6038C56.3418 41.4394 54.9289 37.4327 52.5596 33.9938L52.4659 33.8493C51.8196 32.885 51.1013 31.9709 50.3173 31.1148L48.4149 28.8881C46.2976 26.4075 44.1178 23.841 41.9458 21.337L41.2387 20.5205C40.6254 19.8174 40.016 19.1142 39.4183 18.4032C38.4222 17.2313 37.387 16.0086 36.3869 14.8445C35.3869 13.6803 34.3986 12.528 33.4102 11.3482L32.5508 10.3208Z" fill="black"/>
<path d="M60.7474 45.2677C60.3679 40.3995 58.7149 35.7166 55.9542 31.6889C55.0508 30.3449 54.0479 29.0704 52.9541 27.8762C50.325 24.7979 47.7038 21.7119 45.0553 18.6492C44.2271 17.6882 43.3833 16.7351 42.5708 15.7663C40.5863 13.395 38.5432 11.0785 36.5588 8.70734C35.3087 7.21898 34.0274 5.75016 32.7656 4.26572C32.5937 4.05867 32.496 4.03914 32.3085 4.26572C30.772 6.08872 29.2303 7.90389 27.6833 9.71127L20.2064 18.45C17.5396 21.5751 14.8728 24.6899 12.206 27.7942C10.7723 29.3709 9.47956 31.0702 8.34253 32.8726C6.9035 35.2786 5.82307 37.8817 5.13535 40.5995C4.64891 42.5311 4.35063 44.5052 4.24468 46.4943C4.05618 51.5177 5.21476 56.4999 7.60031 60.9247C8.19145 62.0691 8.8761 63.1627 9.64728 64.1944C13.5855 69.6391 19.3354 73.5018 25.8649 75.089C32.3944 76.6763 39.2759 75.8842 45.274 72.855C46.6035 72.1799 47.8748 71.396 49.075 70.5111C50.2133 69.6932 51.2929 68.7965 52.3056 67.8274C54.784 65.4157 56.7957 62.567 58.2395 59.4246C59.2776 57.153 60.0232 54.7587 60.4583 52.2993C60.8622 49.9782 60.9594 47.6141 60.7474 45.2677Z" fill="#93E7FF"/>
<path d="M32.5351 67.0268C43.2685 67.0268 51.9697 58.3257 51.9697 47.5923C51.9697 36.8589 43.2685 28.1577 32.5351 28.1577C21.8017 28.1577 13.1006 36.8589 13.1006 47.5923C13.1006 58.3257 21.8017 67.0268 32.5351 67.0268Z" fill="#FF6EB9"/>
<path d="M42.4694 33.408L44.6453 31.2321C44.6755 31.2026 44.6996 31.1673 44.716 31.1284C44.7324 31.0895 44.7408 31.0477 44.7408 31.0055C44.7408 30.9633 44.7324 30.9215 44.716 30.8826C44.6996 30.8436 44.6755 30.8084 44.6453 30.7789C43.6088 29.8099 42.371 29.0818 41.0203 28.6469C39.6697 28.212 38.2396 28.081 36.8324 28.2632C36.7652 28.2735 36.6964 28.2616 36.6365 28.2293C36.5767 28.197 36.529 28.1461 36.5007 28.0842C36.4724 28.0223 36.4651 27.9529 36.4798 27.8865C36.4946 27.8201 36.5306 27.7603 36.5824 27.7163C37.5612 26.9104 38.7733 26.4406 40.0396 26.3764C40.1208 26.3734 40.1977 26.3392 40.2544 26.281C40.3112 26.2229 40.3433 26.1451 40.3443 26.0638V22.9856C40.3448 22.9437 40.3369 22.9022 40.3209 22.8635C40.3049 22.8248 40.2812 22.7898 40.2512 22.7605C40.2213 22.7313 40.1856 22.7085 40.1466 22.6934C40.1075 22.6784 40.0658 22.6715 40.024 22.6731C38.6263 22.7191 37.2555 23.069 36.0068 23.6984C34.7581 24.3278 33.6615 25.2217 32.7931 26.3178C32.7639 26.3551 32.7266 26.3853 32.6839 26.4061C32.6413 26.4269 32.5945 26.4377 32.547 26.4377C32.4996 26.4377 32.4528 26.4269 32.4102 26.4061C32.3675 26.3853 32.3302 26.3551 32.3009 26.3178C31.4337 25.2214 30.3379 24.3273 29.0897 23.6978C27.8416 23.0683 26.4712 22.7186 25.074 22.6731C25.0322 22.6715 24.9905 22.6784 24.9514 22.6934C24.9123 22.7085 24.8767 22.7313 24.8468 22.7605C24.8168 22.7898 24.7931 22.8248 24.7771 22.8635C24.7611 22.9022 24.7531 22.9437 24.7537 22.9856V26.0638C24.7536 26.1447 24.7849 26.2225 24.841 26.2808C24.8971 26.3391 24.9736 26.3733 25.0545 26.3764C26.3192 26.4392 27.5301 26.9077 28.5078 27.7123C28.5597 27.7553 28.5961 27.8141 28.6115 27.8798C28.6269 27.9454 28.6203 28.0142 28.5929 28.0758C28.5654 28.1374 28.5185 28.1883 28.4594 28.2207C28.4003 28.2531 28.3323 28.2653 28.2656 28.2553C27.8574 28.2035 27.4464 28.1775 27.035 28.1772C24.5858 28.1702 22.2271 29.1027 20.4449 30.7828C20.3862 30.8421 20.3533 30.9221 20.3533 31.0055C20.3533 31.0889 20.3862 31.1689 20.4449 31.2281L22.6247 33.408C22.6823 33.4638 22.7593 33.495 22.8395 33.495C22.9197 33.495 22.9968 33.4638 23.0544 33.408C24.146 32.4199 25.5666 31.874 27.039 31.8766C27.1913 31.8766 27.3397 31.8766 27.4882 31.8766C26.1349 32.7126 25.0091 33.87 24.2111 35.246C23.413 36.622 22.9673 38.174 22.9137 39.7638C22.9122 39.8056 22.9191 39.8473 22.9341 39.8864C22.9492 39.9254 22.972 39.961 23.0012 39.991C23.0305 40.0209 23.0655 40.0446 23.1042 40.0606C23.1429 40.0766 23.1844 40.0846 23.2263 40.0841H26.3045C26.3858 40.0831 26.4636 40.0509 26.5217 39.9942C26.5799 39.9375 26.6141 39.8605 26.6171 39.7793C26.6749 38.6608 27.0478 37.5814 27.6927 36.6655C28.3375 35.7497 29.2281 35.0348 30.2618 34.6033C30.3095 34.5828 30.3615 34.5743 30.4133 34.5787C30.465 34.583 30.5149 34.6 30.5585 34.6282C30.6021 34.6564 30.6382 34.6949 30.6634 34.7403C30.6886 34.7857 30.7023 34.8365 30.7032 34.8885V54.5222C30.7032 54.5631 30.7113 54.6036 30.727 54.6413C30.7428 54.679 30.7659 54.7132 30.795 54.7419C30.824 54.7706 30.8585 54.7932 30.8964 54.8085C30.9343 54.8238 30.9749 54.8314 31.0157 54.8309H34.0901C34.1309 54.8314 34.1715 54.8238 34.2094 54.8085C34.2473 54.7932 34.2818 54.7706 34.3108 54.7419C34.3399 54.7132 34.363 54.679 34.3787 54.6413C34.3945 54.6036 34.4026 54.5631 34.4026 54.5222V34.8885C34.4028 34.8367 34.4159 34.7858 34.4406 34.7403C34.4654 34.6948 34.5011 34.6562 34.5445 34.6279C34.5878 34.5996 34.6376 34.5826 34.6892 34.5783C34.7408 34.574 34.7927 34.5826 34.8401 34.6033C35.8745 35.0342 36.7659 35.7489 37.4115 36.6647C38.0571 37.5806 38.4305 38.6603 38.4887 39.7793C38.4907 39.8602 38.524 39.9371 38.5816 39.9939C38.6391 40.0508 38.7165 40.0831 38.7973 40.0841H41.8756C41.9177 40.0846 41.9594 40.0766 41.9983 40.0607C42.0371 40.0447 42.0724 40.0211 42.1019 39.9912C42.1315 39.9613 42.1547 39.9257 42.1702 39.8866C42.1857 39.8476 42.1931 39.8058 42.192 39.7638C42.1447 38.3433 41.7836 36.9509 41.1345 35.6866C40.4855 34.4222 39.5646 33.3172 38.4379 32.4509C38.386 32.4077 38.3492 32.3491 38.3329 32.2836C38.3167 32.2181 38.3218 32.1491 38.3475 32.0867C38.3733 32.0243 38.4183 31.9718 38.476 31.9368C38.5338 31.9018 38.6012 31.8862 38.6684 31.8923C39.9254 32.0183 41.1093 32.5425 42.0475 33.3884C42.1031 33.4431 42.1769 33.4753 42.2547 33.4789C42.3326 33.4825 42.409 33.4572 42.4694 33.408Z" fill="black"/>
<path d="M56.4388 52.0027C55.5111 52.0026 54.607 51.71 53.8552 51.1665C53.1033 50.6229 52.542 49.8561 52.2511 48.9752C52.2369 48.9277 52.2077 48.8861 52.1679 48.8566C52.1282 48.827 52.08 48.8111 52.0304 48.8111C51.9809 48.8111 51.9327 48.827 51.8929 48.8566C51.8531 48.8861 51.824 48.9277 51.8097 48.9752C51.5185 49.8569 50.9567 50.6244 50.2041 51.1684C49.4516 51.7123 48.5467 52.0052 47.6181 52.0052C46.6895 52.0052 45.7846 51.7123 45.0321 51.1684C44.2795 50.6244 43.7177 49.8569 43.4265 48.9752C43.4122 48.9277 43.383 48.8861 43.3433 48.8566C43.3035 48.827 43.2553 48.8111 43.2058 48.8111C43.1562 48.8111 43.108 48.827 43.0683 48.8566C43.0285 48.8861 42.9993 48.9277 42.9851 48.9752C42.6498 49.9628 41.9757 50.7999 41.0822 51.3379C40.1887 51.876 39.1335 52.0802 38.1037 51.9145C37.074 51.7489 36.1362 51.2239 35.4565 50.4327C34.7769 49.6415 34.3994 48.6353 34.3909 47.5923H30.7071C30.6986 48.6353 30.3211 49.6415 29.6415 50.4327C28.9618 51.2239 28.024 51.7489 26.9943 51.9145C25.9645 52.0802 24.9093 51.876 24.0158 51.3379C23.1223 50.7999 22.4482 49.9628 22.1129 48.9752C22.0987 48.9277 22.0695 48.8861 22.0297 48.8566C21.99 48.827 21.9418 48.8111 21.8922 48.8111C21.8427 48.8111 21.7945 48.827 21.7547 48.8566C21.715 48.8861 21.6858 48.9277 21.6715 48.9752C21.3803 49.8569 20.8185 50.6244 20.0659 51.1684C19.3134 51.7123 18.4085 52.0052 17.4799 52.0052C16.5513 52.0052 15.6464 51.7123 14.8939 51.1684C14.1413 50.6244 13.5795 49.8569 13.2883 48.9752C13.274 48.9277 13.2448 48.8861 13.2051 48.8566C13.1653 48.827 13.1171 48.8111 13.0676 48.8111C13.018 48.8111 12.9698 48.827 12.9301 48.8566C12.8903 48.8861 12.8611 48.9277 12.8469 48.9752C12.5116 49.9628 11.8375 50.7999 10.944 51.3379C10.0505 51.876 8.9953 52.0802 7.96555 51.9145C6.93579 51.7489 5.99796 51.2239 5.31834 50.4327C4.63871 49.6415 4.26118 48.6353 4.25269 47.5923C4.25269 55.1037 7.23657 62.3074 12.5479 67.6188C17.8593 72.9301 25.063 75.914 32.5744 75.914C40.0858 75.914 47.2895 72.9301 52.6009 67.6188C57.9122 62.3074 60.8961 55.1037 60.8961 47.5923C60.8961 48.1754 60.7805 48.7528 60.5559 49.291C60.3314 49.8291 60.0023 50.3174 59.5878 50.7276C59.1733 51.1378 58.6815 51.4616 58.141 51.6805C57.6005 51.8994 57.0219 52.0089 56.4388 52.0027Z" fill="black"/>
<path d="M56.4348 52.0027C55.5064 52.0034 54.6014 51.7112 53.8488 51.1676C53.0962 50.624 52.5343 49.8568 52.2432 48.9752C52.2289 48.9277 52.1997 48.8861 52.16 48.8566C52.1202 48.827 52.072 48.8111 52.0225 48.8111C51.9729 48.8111 51.9247 48.827 51.8849 48.8566C51.8452 48.8861 51.816 48.9277 51.8017 48.9752C51.5105 49.8569 50.9487 50.6244 50.1962 51.1684C49.4436 51.7123 48.5387 52.0052 47.6101 52.0052C46.6816 52.0052 45.7766 51.7123 45.0241 51.1684C44.2715 50.6244 43.7097 49.8569 43.4185 48.9752C43.4042 48.9277 43.3751 48.8861 43.3353 48.8566C43.2956 48.827 43.2473 48.8111 43.1978 48.8111C43.1483 48.8111 43.1 48.827 43.0603 48.8566C43.0205 48.8861 42.9913 48.9277 42.9771 48.9752C42.6418 49.9628 41.9677 50.7999 41.0742 51.3379C40.1807 51.876 39.1255 52.0802 38.0958 51.9145C37.066 51.7489 36.1282 51.2239 35.4486 50.4327C34.7689 49.6415 34.3914 48.6353 34.3829 47.5923H30.6991C30.6906 48.6353 30.3131 49.6415 29.6335 50.4327C28.9539 51.2239 28.016 51.7489 26.9863 51.9145C25.9565 52.0802 24.9014 51.876 24.0079 51.3379C23.1143 50.7999 22.4402 49.9628 22.105 48.9752C22.0907 48.9277 22.0615 48.8861 22.0218 48.8566C21.982 48.827 21.9338 48.8111 21.8843 48.8111C21.8347 48.8111 21.7865 48.827 21.7467 48.8566C21.707 48.8861 21.6778 48.9277 21.6635 48.9752C21.3714 49.8555 20.8095 50.6214 20.0574 51.1643C19.3053 51.7071 18.4014 51.9993 17.4739 51.9993C16.5464 51.9993 15.6424 51.7071 14.8904 51.1643C14.1383 50.6214 13.5763 49.8555 13.2842 48.9752C13.2688 48.9283 13.239 48.8874 13.199 48.8585C13.159 48.8295 13.1109 48.814 13.0616 48.814C13.0122 48.814 12.9641 48.8295 12.9241 48.8585C12.8841 48.8874 12.8543 48.9283 12.8389 48.9752C12.5036 49.9628 11.8295 50.7999 10.936 51.3379C10.0425 51.876 8.98733 52.0802 7.95758 51.9145C6.92782 51.7489 5.99 51.2239 5.31038 50.4327C4.63075 49.6415 4.25322 48.6353 4.24473 47.5923C0.338284 63.218 16.9211 77.7735 32.5586 77.7735C48.1961 77.7735 64.7242 63.2376 60.8686 47.5923C60.8686 48.1734 60.7537 48.7489 60.5306 49.2855C60.3075 49.8221 59.9806 50.3094 59.5686 50.7192C59.1565 51.1291 58.6676 51.4534 58.1298 51.6737C57.592 51.8939 57.0159 52.0058 56.4348 52.0027Z" fill="black"/>
<path d="M22.0268 57.6044C22.0804 57.5937 22.1358 57.5964 22.1881 57.6122C22.2404 57.6281 22.288 57.6566 22.3266 57.6952C22.3652 57.7338 22.3938 57.7814 22.4096 57.8337C22.4254 57.886 22.4281 57.9414 22.4174 57.995V59.3975C22.4271 59.4509 22.4238 59.5059 22.4076 59.5577C22.3914 59.6096 22.3629 59.6567 22.3245 59.6951C22.286 59.7335 22.2389 59.762 22.1871 59.7782C22.1352 59.7944 22.0802 59.7978 22.0268 59.7881H18.8782C18.8248 59.7784 18.7698 59.7817 18.7179 59.7979C18.6661 59.8141 18.6189 59.8426 18.5805 59.881C18.5421 59.9194 18.5136 59.9666 18.4974 60.0185C18.4812 60.0703 18.4778 60.1253 18.4876 60.1787V60.5694C18.4788 60.6227 18.4828 60.6772 18.4993 60.7287C18.5158 60.7801 18.5444 60.8268 18.5826 60.865C18.6207 60.9032 18.6675 60.9317 18.7189 60.9483C18.7703 60.9648 18.8249 60.9688 18.8782 60.96H20.9408C20.9944 60.9493 21.0498 60.952 21.1021 60.9678C21.1544 60.9837 21.202 61.0122 21.2406 61.0508C21.2793 61.0895 21.3078 61.137 21.3236 61.1894C21.3395 61.2417 21.3421 61.2971 21.3314 61.3507V62.7531C21.3402 62.8064 21.3362 62.8609 21.3197 62.9123C21.3032 62.9638 21.2746 63.0105 21.2364 63.0487C21.1982 63.0869 21.1515 63.1154 21.1001 63.1319C21.0487 63.1485 20.9941 63.1525 20.9408 63.1437H18.8782C18.8248 63.134 18.7698 63.1374 18.7179 63.1536C18.6661 63.1698 18.6189 63.1983 18.5805 63.2367C18.5421 63.2751 18.5136 63.3222 18.4974 63.3741C18.4812 63.4259 18.4778 63.4809 18.4876 63.5344V66.0814C18.4973 66.1348 18.4939 66.1898 18.4777 66.2416C18.4615 66.2935 18.433 66.3406 18.3946 66.379C18.3562 66.4174 18.309 66.4459 18.2572 66.4621C18.2053 66.4783 18.1503 66.4817 18.0969 66.472H16.6203C16.5671 66.4799 16.5129 66.4753 16.4619 66.4584C16.4109 66.4416 16.3645 66.413 16.3266 66.3751C16.2886 66.3371 16.26 66.2907 16.2432 66.2397C16.2264 66.1887 16.2217 66.1345 16.2296 66.0814V57.9794C16.2208 57.9261 16.2249 57.8715 16.2414 57.8201C16.2579 57.7687 16.2864 57.7219 16.3246 57.6838C16.3628 57.6456 16.4096 57.617 16.461 57.6005C16.5124 57.584 16.567 57.58 16.6203 57.5888L22.0268 57.6044Z" fill="white"/>
<path d="M26.9177 57.6044C26.9713 57.5937 27.0267 57.5964 27.079 57.6122C27.1313 57.6281 27.1789 57.6566 27.2175 57.6952C27.2562 57.7338 27.2847 57.7814 27.3005 57.8337C27.3164 57.886 27.319 57.9414 27.3083 57.995V63.8547C27.2996 63.9079 27.3036 63.9626 27.3201 64.014C27.3366 64.0654 27.3652 64.1121 27.4034 64.1503C27.4415 64.1885 27.4883 64.2171 27.5397 64.2336C27.5911 64.2501 27.6457 64.2541 27.699 64.2453H30.4843C30.5379 64.2346 30.5933 64.2373 30.6456 64.2532C30.6979 64.269 30.7455 64.2975 30.7841 64.3362C30.8227 64.3748 30.8513 64.4224 30.8671 64.4747C30.8829 64.527 30.8856 64.5824 30.8749 64.636V66.0345C30.8856 66.0881 30.8829 66.1435 30.8671 66.1958C30.8513 66.2481 30.8227 66.2956 30.7841 66.3343C30.7455 66.3729 30.6979 66.4014 30.6456 66.4173C30.5933 66.4331 30.5379 66.4358 30.4843 66.4251H25.527C25.4737 66.4339 25.4191 66.4299 25.3677 66.4134C25.3163 66.3968 25.2696 66.3683 25.2314 66.3301C25.1932 66.2919 25.1647 66.2452 25.1481 66.1938C25.1316 66.1423 25.1276 66.0878 25.1364 66.0345V57.9794C25.1276 57.9261 25.1316 57.8715 25.1481 57.8201C25.1647 57.7687 25.1932 57.7219 25.2314 57.6838C25.2696 57.6456 25.3163 57.617 25.3677 57.6005C25.4191 57.584 25.4737 57.58 25.527 57.5888L26.9177 57.6044Z" fill="white"/>
<path d="M36.7776 57.6044C39.1215 57.6044 39.9028 58.5575 39.9028 60.6045V63.339C39.9028 65.3899 39.1215 66.3509 36.7776 66.3509H33.9923C33.9391 66.3597 33.8845 66.3556 33.833 66.3391C33.7816 66.3226 33.7349 66.2941 33.6967 66.2559C33.6585 66.2177 33.63 66.171 33.6135 66.1196C33.597 66.0681 33.5929 66.0135 33.6017 65.9602V57.9755C33.5946 57.9225 33.5999 57.8686 33.617 57.818C33.6341 57.7674 33.6627 57.7214 33.7005 57.6836C33.7383 57.6458 33.7842 57.6172 33.8349 57.6001C33.8855 57.583 33.9394 57.5778 33.9923 57.5849L36.7776 57.6044ZM36.8167 64.2062C37.4144 64.2062 37.7152 64.1047 37.7152 63.3547V60.6202C37.7152 59.8389 37.4144 59.7724 36.8167 59.7724H36.1409C36.0874 59.7627 36.0325 59.7661 35.9806 59.7823C35.9288 59.7985 35.8816 59.827 35.8432 59.8654C35.8048 59.9038 35.7763 59.951 35.7601 60.0028C35.7439 60.0547 35.7405 60.1097 35.7502 60.1631V63.8625C35.7415 63.9158 35.7455 63.9704 35.762 64.0218C35.7785 64.0732 35.8071 64.1199 35.8453 64.1581C35.8834 64.1963 35.9302 64.2248 35.9816 64.2413C36.033 64.2579 36.0876 64.2619 36.1409 64.2531L36.8167 64.2062Z" fill="white"/>
<path d="M42.9028 60.4169C42.9028 59.5926 43.0786 57.3816 46.028 57.3816C48.6922 57.3816 49.1063 59.1668 49.1531 60.1161C49.161 60.1981 49.137 60.28 49.086 60.3447C49.0351 60.4095 48.9612 60.4521 48.8797 60.4638L47.4929 60.7763C47.4338 60.7882 47.3729 60.7871 47.3142 60.7733C47.2555 60.7594 47.2006 60.733 47.1531 60.6959C47.1056 60.6588 47.0667 60.6118 47.039 60.5583C47.0114 60.5047 46.9956 60.4458 46.9929 60.3856C46.9988 60.2613 46.9771 60.1371 46.9294 60.0221C46.8817 59.9071 46.8091 59.8041 46.7169 59.7204C46.6246 59.6368 46.515 59.5746 46.3959 59.5383C46.2768 59.5021 46.1512 59.4926 46.028 59.5106C45.1061 59.5106 45.0436 60.1005 45.0436 61.0732V62.874C45.0436 63.835 45.1061 64.4366 46.028 64.4366C46.7155 64.4366 46.903 64.1085 46.9811 63.5342C46.9835 63.4763 46.9987 63.4196 47.0257 63.3683C47.0527 63.317 47.0907 63.2724 47.1371 63.2376C47.1835 63.2028 47.237 63.1788 47.2938 63.1672C47.3506 63.1557 47.4093 63.157 47.4656 63.1709L48.8797 63.4834C48.9634 63.497 49.0386 63.5423 49.0895 63.6101C49.1405 63.6778 49.1633 63.7626 49.1531 63.8467C49.1063 64.796 48.6922 66.5812 46.028 66.5812C43.0669 66.5812 42.9028 64.3702 42.9028 63.5421V60.4169Z" fill="white"/>
</g>
<defs>
<clipPath id="clip0_4_1060">
<rect width="65.0704" height="80" fill="white"/>
</clipPath>
</defs>
</svg>
