<svg width="65px" height="80px" viewBox="0 0 65 80" version="1.1" xmlns="http://www.w3.org/2000/svg" xmlns:xlink="http://www.w3.org/1999/xlink">
    <defs>
        <linearGradient x1="49.9900887%" y1="0.286486953%" x2="49.9900887%" y2="100.900281%" id="linearGradient-1">
            <stop stop-color="#ABDFEE" offset="0%"></stop>
            <stop stop-color="#AFDDEA" offset="24%"></stop>
            <stop stop-color="#BAD6DF" offset="46%"></stop>
            <stop stop-color="#CCCBCD" offset="67%"></stop>
            <stop stop-color="#E6BBB3" offset="88%"></stop>
            <stop stop-color="#F9AFA0" offset="100%"></stop>
        </linearGradient>
    </defs>
    <g id="Page-1" stroke="none" stroke-width="1" fill="none" fill-rule="evenodd">
        <g id="fldc22-logo" transform="translate(0.133056, 0.015686)" fill-rule="nonzero">
            <g id="Group">
                <path d="M60.6145437,45.252114 C60.2350437,40.383814 58.5820437,35.701014 55.8212437,31.673314 C54.9178437,30.329314 53.9150437,29.054814 52.8211437,27.860614 C50.1921437,24.782314 47.5708437,21.696214 44.9223437,18.633614 C44.0941437,17.672614 43.2503437,16.719414 42.4378437,15.750614 C40.4533437,13.379414 38.4102437,11.062914 36.4258437,8.691734 C35.1757437,7.203384 33.8944437,5.734564 32.6326437,4.250114 C32.4607437,4.043074 32.3631437,4.023544 32.1756437,4.250114 C30.6390437,6.073114 29.0973437,7.888284 27.5503437,9.695664 L20.0734437,18.434414 C17.4066437,21.559514 14.7398437,24.674314 12.0730437,27.778614 C10.6393437,29.355314 9.34662368,31.054614 8.20959368,32.857014 C6.77056368,35.263014 5.69013368,37.866014 5.00241368,40.583914 C4.51598368,42.515514 4.21769368,44.489614 4.11174368,46.478714 C3.92324368,51.502014 5.08182368,56.484314 7.46737368,60.909114 L7.46737368,60.909114 C8.05851368,62.053514 8.74316368,63.147114 9.51434368,64.178814 C13.4525437,69.623414 19.2024437,73.486114 25.7319437,75.073414 C32.2614437,76.660714 39.1429437,75.868614 45.1410437,72.839414 C46.4705437,72.164314 47.7419437,71.380314 48.9420437,70.495514 C50.0804437,69.677614 51.1599437,68.780814 52.1726437,67.811814 C54.6510437,65.400014 56.6627437,62.551414 58.1065437,59.409014 C59.1447437,57.137414 59.8902437,54.743114 60.3254437,52.283714 C60.7292437,49.962614 60.8264437,47.598514 60.6145437,45.252114 Z" id="Path" fill="#003451"></path>
                <path d="M32.4451437,79.9844147 C29.8346437,79.980214 27.2340437,79.664114 24.6986437,79.042914 C17.2506437,77.208414 10.6932437,72.794814 6.18991368,66.585214 C5.31060368,65.396514 4.52686368,64.139914 3.84605368,62.827314 C1.11544368,57.752314 -0.20390012,52.037914 0.0255506801,46.279614 C0.14046168,44.025614 0.47540368,41.788314 1.02560368,39.599614 C1.80998368,36.498114 3.04310368,33.527814 4.68593368,30.782714 C5.94320368,28.764314 7.38149368,26.864414 8.98301368,25.106614 L14.9051437,18.192314 L18.5928437,13.895214 L24.4525437,7.039364 C25.9942437,5.237194 27.5321437,3.429864 29.0660437,1.617274 C29.4719437,1.116464 29.9837437,0.711702 30.5645437,0.432083 C31.1454437,0.152465 31.7809437,0.0049217 32.4255437,-2.31065167e-15 L32.4255437,-2.31065167e-15 C33.0658437,0.0035641 33.6974437,0.148208 34.2754437,0.423691 C34.8533437,0.699173 35.3635437,1.098704 35.7694437,1.593814 C36.2903437,2.211024 36.8177437,2.828244 37.3515437,3.445464 C38.0938437,4.312694 38.8360437,5.176034 39.5704437,6.051074 C40.5314437,7.195664 41.5236437,8.351974 42.4885437,9.473114 C43.5042437,10.645014 44.5589437,11.883414 45.5863437,13.113914 C46.1489437,13.785814 46.7270437,14.449914 47.3052437,15.114014 L48.0279437,15.946114 C50.2116437,18.473514 52.4109437,21.051814 54.5360437,23.544114 L56.4072437,25.735614 C57.4532437,26.891814 58.4079437,28.127314 59.2628437,29.431114 C62.3927437,34.029114 64.2696437,39.363614 64.7084437,44.908414 C64.9437437,47.603514 64.8282437,50.317714 64.3646437,52.983014 C63.8699437,55.782214 63.0219437,58.507214 61.8410437,61.092814 C60.1893437,64.697414 57.8877437,67.966914 55.0516437,70.737814 C53.9012437,71.843914 52.6742437,72.867314 51.3796437,73.800414 C49.9994437,74.816014 48.5387437,75.717414 47.0122437,76.495914 C43.8011437,78.118214 40.3421437,79.194214 36.7773437,79.679614 C35.3422437,79.882814 33.8945437,79.9844147 32.4451437,79.9844147 Z M32.4177437,10.305214 L30.6676437,12.356114 L24.8080437,19.211814 L21.1203437,23.508914 C19.1436437,25.816314 17.1670437,28.123714 15.1903437,30.431114 C13.9163437,31.828414 12.7649437,33.332814 11.7487437,34.927414 C10.5092437,36.994614 9.57876368,39.231914 8.98692368,41.568414 C8.56037368,43.242014 8.29869368,44.953414 8.20564368,46.678014 C8.04992368,50.933614 9.03015368,55.153914 11.0456437,58.905214 L11.1393437,59.084914 C11.6331437,60.026014 12.2013437,60.926014 12.8386437,61.776414 C16.1974437,66.399914 21.0812437,69.688514 26.6284437,71.062014 C32.2204437,72.441314 38.1212437,71.776314 43.2659437,69.187014 C44.3969437,68.612614 45.4787437,67.946314 46.5004437,67.194714 C47.4820437,66.490014 48.4140437,65.718614 49.2896437,64.886014 C51.4156437,62.821514 53.1379437,60.378514 54.3680437,57.682514 C55.2637437,55.723814 55.9057437,53.658914 56.2783437,51.537614 C56.6204437,49.573814 56.7018437,47.573314 56.5205437,45.588114 C56.2087437,41.423714 54.7958437,37.417014 52.4265437,33.978214 L52.3328437,33.833714 C51.6865437,32.869414 50.9682437,31.955214 50.1842437,31.099214 L48.2818437,28.872514 C46.1645437,26.391914 43.9847437,23.825414 41.8127437,21.321314 L41.1056437,20.504914 C40.4923437,19.801714 39.8829437,19.098614 39.2852437,18.387614 C38.2891437,17.215614 37.2539437,15.992914 36.2538437,14.828814 C35.2538437,13.664714 34.2655437,12.512314 33.2771437,11.332614 L32.4177437,10.305214 Z" id="Shape" fill="#003451"></path>
                <path d="M60.6145437,45.252114 C60.2350437,40.383814 58.5820437,35.701014 55.8212437,31.673314 C54.9178437,30.329314 53.9150437,29.054814 52.8211437,27.860614 C50.1921437,24.782314 47.5708437,21.696214 44.9223437,18.633614 C44.0941437,17.672614 43.2503437,16.719414 42.4378437,15.750614 C40.4533437,13.379414 38.4102437,11.062914 36.4258437,8.691734 C35.1757437,7.203384 33.8944437,5.734564 32.6326437,4.250114 C32.4607437,4.043074 32.3631437,4.023544 32.1756437,4.250114 C30.6390437,6.073114 29.0973437,7.888284 27.5503437,9.695664 L20.0734437,18.434414 C17.4066437,21.559514 14.7398437,24.674314 12.0730437,27.778614 C10.6393437,29.355314 9.34662368,31.054614 8.20959368,32.857014 C6.77056368,35.263014 5.69013368,37.866014 5.00241368,40.583914 C4.51598368,42.515514 4.21769368,44.489614 4.11174368,46.478714 C3.92324368,51.502014 5.08182368,56.484314 7.46737368,60.909114 L7.46737368,60.909114 C8.05851368,62.053514 8.74316368,63.147114 9.51434368,64.178814 C13.4525437,69.623414 19.2024437,73.486114 25.7319437,75.073414 C32.2614437,76.660714 39.1429437,75.868614 45.1410437,72.839414 C46.4705437,72.164314 47.7419437,71.380314 48.9420437,70.495514 C50.0804437,69.677614 51.1599437,68.780814 52.1726437,67.811814 C54.6510437,65.400014 56.6627437,62.551414 58.1065437,59.409014 C59.1447437,57.137414 59.8902437,54.743114 60.3254437,52.283714 C60.7292437,49.962614 60.8264437,47.598514 60.6145437,45.252114 Z" id="Path" fill="url(#linearGradient-1)"></path>
                <path d="M32.4022437,67.011014 C43.1356437,67.011014 51.8367437,58.309914 51.8367437,47.576514 C51.8367437,36.843114 43.1356437,28.141914 32.4022437,28.141914 C21.6688437,28.141914 12.9676437,36.843114 12.9676437,47.576514 C12.9676437,58.309914 21.6688437,67.011014 32.4022437,67.011014 Z" id="Path" fill="#F68958"></path>
                <path d="M42.3362437,33.392314 L44.5121437,31.216314 C44.5424437,31.186914 44.5664437,31.151614 44.5828437,31.112714 C44.5992437,31.073814 44.6077437,31.032014 44.6077437,30.989814 C44.6077437,30.947614 44.5992437,30.905814 44.5828437,30.866914 C44.5664437,30.827914 44.5424437,30.792714 44.5121437,30.763214 C43.4756437,29.794214 42.2378437,29.066114 40.8871437,28.631214 C39.5365437,28.196314 38.1064437,28.065314 36.6992437,28.247514 C36.6320437,28.257814 36.5632437,28.245914 36.5034437,28.213614 C36.4435437,28.181314 36.3958437,28.130414 36.3675437,28.068514 C36.3392437,28.006614 36.3319437,27.937214 36.3467437,27.870814 C36.3614437,27.804414 36.3974437,27.744614 36.4492437,27.700514 C37.4281437,26.894714 38.6401437,26.424914 39.9064437,26.360714 C39.9876437,26.357714 40.0646437,26.323514 40.1213437,26.265314 C40.1780437,26.207214 40.2102437,26.129414 40.2111437,26.048114 L40.2111437,22.969914 C40.2117437,22.928014 40.2037437,22.886514 40.1877437,22.847814 C40.1717437,22.809114 40.1480437,22.774114 40.1181437,22.744814 C40.0881437,22.715614 40.0525437,22.692814 40.0134437,22.677714 C39.9744437,22.662714 39.9326437,22.655814 39.8908437,22.6571878 C38.4932437,22.703414 37.1224437,23.053314 35.8737437,23.682714 C34.6250437,24.312114 33.5283437,25.206014 32.6600437,26.302114 C32.6307437,26.339414 32.5934437,26.369614 32.5508437,26.390414 C32.5081437,26.411114 32.4613437,26.422014 32.4139437,26.422014 C32.3664437,26.422014 32.3196437,26.411114 32.2770437,26.390414 C32.2344437,26.369614 32.1970437,26.339414 32.1678437,26.302114 C31.3006437,25.205714 30.2047437,24.311614 28.9566437,23.682114 C27.7084437,23.052614 26.3380437,22.702914 24.9409437,22.6571878 C24.8990437,22.655814 24.8573437,22.662714 24.8182437,22.677714 C24.7792437,22.692814 24.7436437,22.715614 24.7136437,22.744814 C24.6836437,22.774114 24.6599437,22.809114 24.6439437,22.847814 C24.6279437,22.886514 24.6200437,22.928014 24.6205437,22.969914 L24.6205437,26.048114 C24.6205437,26.129014 24.6518437,26.206814 24.7079437,26.265114 C24.7640437,26.323414 24.8405437,26.357614 24.9213437,26.360714 C26.1860437,26.423514 27.3969437,26.892014 28.3746437,27.696614 C28.4265437,27.739614 28.4630437,27.798414 28.4783437,27.864114 C28.4937437,27.929714 28.4872437,27.998514 28.4597437,28.060114 C28.4322437,28.121714 28.3854437,28.172614 28.3263437,28.205014 C28.2672437,28.237414 28.1991437,28.249614 28.1324437,28.239614 C27.7243437,28.187814 27.3133437,28.161814 26.9019437,28.161514 C24.4526437,28.154414 22.0939437,29.087014 20.3117437,30.767114 C20.2530437,30.826414 20.2201437,30.906414 20.2201437,30.989814 C20.2201437,31.073214 20.2530437,31.153214 20.3117437,31.212414 L22.4915437,33.392314 C22.5491437,33.448114 22.6262437,33.479314 22.7064437,33.479314 C22.7866437,33.479314 22.8636437,33.448114 22.9212437,33.392314 C24.0129437,32.404214 25.4334437,31.858314 26.9058437,31.860914 C27.0581437,31.860914 27.2066437,31.860914 27.3550437,31.860914 C26.0017437,32.696914 24.8760437,33.854314 24.0779437,35.230314 C23.2798437,36.606314 22.8342437,38.158314 22.7806437,39.748014 C22.7790437,39.789914 22.7859437,39.831614 22.8010437,39.870614 C22.8160437,39.909714 22.8388437,39.945314 22.8681437,39.975314 C22.8973437,40.005214 22.9323437,40.028914 22.9710437,40.044914 C23.0097437,40.060914 23.0512437,40.068914 23.0931437,40.068314 L26.1714437,40.068314 C26.2526437,40.067414 26.3304437,40.035214 26.3886437,39.978514 C26.4468437,39.921814 26.4809437,39.844814 26.4839437,39.763614 C26.5418437,38.645114 26.9146437,37.565614 27.5595437,36.649814 C28.2044437,35.734014 29.0950437,35.019114 30.1286437,34.587614 C30.1763437,34.567114 30.2283437,34.558614 30.2801437,34.562914 C30.3318437,34.567314 30.3817437,34.584314 30.4254437,34.612514 C30.4690437,34.640714 30.5050437,34.679214 30.5302437,34.724614 C30.5555437,34.770014 30.5691437,34.820814 30.5700437,34.872814 L30.5700437,54.506514 C30.5700437,54.547414 30.5781437,54.587914 30.5939437,54.625614 C30.6096437,54.663314 30.6327437,54.697514 30.6618437,54.726214 C30.6909437,54.754914 30.7254437,54.777514 30.7632437,54.792814 C30.8011437,54.808114 30.8417437,54.815714 30.8825437,54.8152372 L33.9569437,54.8152372 C33.9978437,54.815714 34.0383437,54.808114 34.0762437,54.792814 C34.1141437,54.777514 34.1486437,54.754914 34.1777437,54.726214 C34.2067437,54.697514 34.2298437,54.663314 34.2456437,54.625614 C34.2613437,54.587914 34.2694437,54.547414 34.2694437,54.506514 L34.2694437,34.872814 C34.2696437,34.821014 34.2827437,34.770114 34.3075437,34.724614 C34.3322437,34.679114 34.3679437,34.640514 34.4113437,34.612214 C34.4547437,34.583914 34.5044437,34.566914 34.5560437,34.562614 C34.6076437,34.558314 34.6595437,34.566914 34.7070437,34.587614 C35.7413437,35.018514 36.6327437,35.733214 37.2783437,36.649014 C37.9239437,37.564914 38.2974437,38.644614 38.3556437,39.763614 C38.3576437,39.844514 38.3909437,39.921414 38.4484437,39.978214 C38.5060437,40.035014 38.5833437,40.067414 38.6642437,40.068314 L41.7425437,40.068314 C41.7845437,40.068914 41.8262437,40.060914 41.8651437,40.045014 C41.9040437,40.029014 41.9392437,40.005414 41.9688437,39.975514 C41.9983437,39.945614 42.0215437,39.910014 42.0370437,39.870914 C42.0525437,39.831814 42.0599437,39.790114 42.0589437,39.748014 C42.0116437,38.327614 41.6504437,36.935214 41.0014437,35.670914 C40.3523437,34.406514 39.4314437,33.301514 38.3048437,32.435214 C38.2528437,32.392014 38.2160437,32.333414 38.1998437,32.267914 C38.1835437,32.202414 38.1886437,32.133414 38.2144437,32.071014 C38.2401437,32.008614 38.2851437,31.956114 38.3429437,31.921114 C38.4006437,31.886114 38.4680437,31.870514 38.5353437,31.876614 C39.7922437,32.002614 40.9761437,32.526814 41.9143437,33.372714 C41.9699437,33.427314 42.0437437,33.459614 42.1215437,33.463214 C42.1994437,33.466814 42.2758437,33.441514 42.3362437,33.392314 L42.3362437,33.392314 Z" id="Path" fill="#003451"></path>
                <path d="M56.3056437,51.986914 C55.3779437,51.986814 54.4738437,51.694214 53.7219437,51.150614 C52.9701437,50.607114 52.4088437,49.840314 52.1179437,48.959414 C52.1036437,48.911914 52.0745437,48.870314 52.0347437,48.840814 C51.9950437,48.811214 51.9467437,48.795314 51.8972437,48.795314 C51.8477437,48.795314 51.7994437,48.811214 51.7597437,48.840814 C51.7199437,48.870314 51.6908437,48.911914 51.6765437,48.959414 C51.3853437,49.841114 50.8235437,50.608514 50.0709437,51.152514 C49.3184437,51.696514 48.4134437,51.989314 47.4849437,51.989314 C46.5563437,51.989314 45.6514437,51.696514 44.8988437,51.152514 C44.1463437,50.608514 43.5845437,49.841114 43.2933437,48.959414 C43.2790437,48.911914 43.2498437,48.870314 43.2101437,48.840814 C43.1703437,48.811214 43.1221437,48.795314 43.0725437,48.795314 C43.0230437,48.795314 42.9748437,48.811214 42.9350437,48.840814 C42.8953437,48.870314 42.8661437,48.911914 42.8518437,48.959414 C42.5166437,49.947014 41.8425437,50.784114 40.9489437,51.322114 C40.0554437,51.860114 39.0003437,52.064414 37.9705437,51.898714 C36.9408437,51.733014 36.0029437,51.208114 35.3233437,50.416914 C34.6437437,49.625714 34.2662437,48.619414 34.2577437,47.576514 L30.5739437,47.576514 C30.5654437,48.619414 30.1879437,49.625714 29.5082437,50.416914 C28.8286437,51.208114 27.8908437,51.733014 26.8610437,51.898714 C25.8313437,52.064414 24.7761437,51.860114 23.8826437,51.322114 C22.9891437,50.784114 22.3150437,49.947014 21.9797437,48.959414 C21.9655437,48.911914 21.9363437,48.870314 21.8965437,48.840814 C21.8568437,48.811214 21.8085437,48.795314 21.7590437,48.795314 C21.7095437,48.795314 21.6612437,48.811214 21.6215437,48.840814 C21.5817437,48.870314 21.5526437,48.911914 21.5383437,48.959414 C21.2471437,49.841114 20.6853437,50.608514 19.9327437,51.152514 C19.1802437,51.696514 18.2752437,51.989314 17.3467437,51.989314 C16.4181437,51.989314 15.5132437,51.696514 14.7606437,51.152514 C14.0081437,50.608514 13.4463437,49.841114 13.1551437,48.959414 C13.1408437,48.911914 13.1116437,48.870314 13.0719437,48.840814 C13.0321437,48.811214 12.9839437,48.795314 12.9344437,48.795314 C12.8848437,48.795314 12.8366437,48.811214 12.7968437,48.840814 C12.7571437,48.870314 12.7279437,48.911914 12.7136437,48.959414 C12.3784437,49.947014 11.7043437,50.784114 10.8108437,51.322114 C9.91724368,51.860114 8.86212368,52.064414 7.83236368,51.898714 C6.80261368,51.733014 5.86478368,51.208114 5.18516368,50.416914 C4.50553368,49.625714 4.12800368,48.619414 4.11950368,47.576514 L4.11950368,47.576514 C4.11950368,55.087814 7.10339368,62.291614 12.4147437,67.602914 C17.7260437,72.914314 24.9298437,75.898214 32.4412437,75.898214 C39.9526437,75.898214 47.1563437,72.914314 52.4676437,67.602914 C57.7790437,62.291614 60.7629437,55.087814 60.7629437,47.576514 L60.7629437,47.576514 C60.7629437,48.159614 60.6473437,48.737014 60.4227437,49.275114 C60.1981437,49.813314 59.8691437,50.301614 59.4546437,50.711814 C59.0400437,51.121914 58.5483437,51.445814 58.0078437,51.664714 C57.4673437,51.883514 56.8887437,51.993014 56.3056437,51.986914 Z" id="Path" fill="#003451"></path>
                <path d="M56.3017437,51.986914 C55.3733437,51.987614 54.4684437,51.695414 53.7157437,51.151814 C52.9631437,50.608214 52.4012437,49.840914 52.1101437,48.959414 C52.0959437,48.911914 52.0667437,48.870314 52.0269437,48.840814 C51.9872437,48.811214 51.9390437,48.795314 51.8894437,48.795314 C51.8399437,48.795314 51.7916437,48.811214 51.7519437,48.840814 C51.7121437,48.870314 51.6830437,48.911914 51.6687437,48.959414 C51.3775437,49.841114 50.8157437,50.608514 50.0631437,51.152514 C49.3106437,51.696514 48.4057437,51.989314 47.4771437,51.989314 C46.5485437,51.989314 45.6436437,51.696514 44.8910437,51.152514 C44.1385437,50.608514 43.5767437,49.841114 43.2855437,48.959414 C43.2712437,48.911914 43.2420437,48.870314 43.2023437,48.840814 C43.1625437,48.811214 43.1143437,48.795314 43.0648437,48.795314 C43.0152437,48.795314 42.9670437,48.811214 42.9272437,48.840814 C42.8875437,48.870314 42.8583437,48.911914 42.8440437,48.959414 C42.5088437,49.947014 41.8347437,50.784114 40.9412437,51.322114 C40.0477437,51.860114 38.9925437,52.064414 37.9627437,51.898714 C36.9330437,51.733014 35.9952437,51.208114 35.3155437,50.416914 C34.6359437,49.625714 34.2584437,48.619414 34.2499437,47.576514 L30.5661437,47.576514 C30.5576437,48.619414 30.1801437,49.625714 29.5004437,50.416914 C28.8208437,51.208114 27.8830437,51.733014 26.8533437,51.898714 C25.8235437,52.064414 24.7683437,51.860114 23.8748437,51.322114 C22.9813437,50.784114 22.3072437,49.947014 21.9719437,48.959414 C21.9577437,48.911914 21.9285437,48.870314 21.8887437,48.840814 C21.8490437,48.811214 21.8008437,48.795314 21.7512437,48.795314 C21.7017437,48.795314 21.6535437,48.811214 21.6137437,48.840814 C21.5739437,48.870314 21.5448437,48.911914 21.5305437,48.959414 C21.2384437,49.839714 20.6764437,50.605614 19.9244437,51.148414 C19.1723437,51.691314 18.2684437,51.983514 17.3409437,51.983514 C16.4133437,51.983514 15.5094437,51.691314 14.7573437,51.148414 C14.0053437,50.605614 13.4433437,49.839714 13.1512437,48.959414 C13.1358437,48.912514 13.1059437,48.871614 13.0660437,48.842714 C13.0260437,48.813714 12.9779437,48.798214 12.9285437,48.798214 C12.8792437,48.798214 12.8311437,48.813714 12.7911437,48.842714 C12.7511437,48.871614 12.7213437,48.912514 12.7059437,48.959414 C12.3706437,49.947014 11.6965437,50.784114 10.8030437,51.322114 C9.90954368,51.860114 8.85433368,52.064414 7.82458368,51.898714 C6.79483368,51.733014 5.85701368,51.208114 5.17738368,50.416914 C4.49775368,49.625714 4.12023368,48.619414 4.11173368,47.576514 L4.11173368,47.576514 C0.20528968,63.202214 16.7881437,77.757614 32.4256437,77.757614 C48.0631437,77.757614 64.5912437,63.221814 60.7356437,47.576514 C60.7356437,48.157614 60.6207437,48.733114 60.3976437,49.269714 C60.1745437,49.806314 59.8475437,50.293514 59.4355437,50.703414 C59.0235437,51.113214 58.5345437,51.437614 57.9967437,51.657914 C57.4589437,51.878114 56.8829437,51.989914 56.3017437,51.986914 L56.3017437,51.986914 Z" id="Path" fill="#003451"></path>
            </g>
        </g>
    </g>
</svg>
