<svg class="arrow-right" width="14" height="14" viewBox="0 0 14 14" fill="none" xmlns="http://www.w3.org/2000/svg">
<path d="M13.19 6.71503C13.1543 6.62296 13.1008 6.53886 13.0325 6.46753L7.73001 1.16503C7.66008 1.0951 7.57706 1.03963 7.4857 1.00178C7.39433 0.963937 7.29641 0.944458 7.19751 0.944458C7.09862 0.944458 7.00069 0.963937 6.90932 1.00178C6.81796 1.03963 6.73494 1.0951 6.66501 1.16503C6.59508 1.23496 6.53961 1.31797 6.50177 1.40934C6.46392 1.50071 6.44444 1.59863 6.44444 1.69753C6.44444 1.79642 6.46392 1.89435 6.50177 1.98571C6.53961 2.07708 6.59508 2.1601 6.66501 2.23003L10.6925 6.25003H1.5C1.30109 6.25003 1.11032 6.32905 0.96967 6.4697C0.829018 6.61035 0.75 6.80112 0.75 7.00003C0.75 7.19894 0.829018 7.38971 0.96967 7.53036C1.11032 7.67101 1.30109 7.75003 1.5 7.75003H10.6925L6.66501 11.77C6.59471 11.8398 6.53892 11.9227 6.50084 12.0141C6.46277 12.1055 6.44316 12.2035 6.44316 12.3025C6.44316 12.4015 6.46277 12.4996 6.50084 12.591C6.53892 12.6824 6.59471 12.7653 6.66501 12.835C6.73509 12.9045 6.8182 12.9595 6.90958 12.9969C7.00096 13.0342 7.09881 13.0531 7.19751 13.0525C7.29622 13.0531 7.39406 13.0342 7.48544 12.9969C7.57682 12.9595 7.65993 12.9045 7.73001 12.835L13.0325 7.53253C13.1008 7.4612 13.1543 7.37709 13.19 7.28503C13.265 7.10243 13.265 6.89762 13.19 6.71503Z" fill="currentColor"/>
</svg>
