<svg aria-hidden="true" width="14" height="18" viewBox="0 0 14 18" fill="none" xmlns="http://www.w3.org/2000/svg">
<path d="M7.00065 0.125465C5.31391 0.127229 3.69674 0.79801 2.50395 1.99064C1.31116 3.18327 0.640168 4.80036 0.638184 6.4871C0.638184 10.2196 4.32741 14.7966 5.9097 16.5904C6.04639 16.7454 6.21446 16.8694 6.40277 16.9544C6.59107 17.0394 6.79531 17.0833 7.0019 17.0833C7.20849 17.0833 7.41272 17.0394 7.60103 16.9544C7.78934 16.8694 7.95741 16.7454 8.09409 16.5904C9.67638 14.7966 13.3639 10.2196 13.3639 6.4871C13.362 4.80021 12.6909 3.183 11.4979 1.99035C10.3049 0.797692 8.68754 0.127008 7.00065 0.125465ZM7.15888 15.7643C7.13927 15.7863 7.11522 15.804 7.08831 15.8161C7.06139 15.8281 7.03223 15.8344 7.00273 15.8344C6.97324 15.8344 6.94407 15.8281 6.91716 15.8161C6.89025 15.804 6.8662 15.7863 6.84659 15.7643C5.68069 14.4469 1.88986 9.88653 1.88986 6.4871C1.90702 5.14238 2.45325 3.85856 3.41023 2.91371C4.36722 1.96886 5.65791 1.43906 7.00273 1.43906C8.34756 1.43906 9.63825 1.96886 10.5952 2.91371C11.5522 3.85856 12.0984 5.14238 12.1156 6.4871C12.1131 9.88653 8.31895 14.4469 7.15888 15.7643Z" fill="#7E878B"/>
</svg>
