<svg aria-hidden="true" width="18" height="18" viewBox="0 0 18 18" fill="none" xmlns="http://www.w3.org/2000/svg">
<path d="M9.00002 17.376C4.36802 17.376 0.624023 13.632 0.624023 9C0.624023 4.368 4.36802 0.599998 9.00002 0.599998C13.632 0.599998 17.4 4.368 17.4 9C17.4 13.632 13.632 17.376 9.00002 17.376ZM9.00002 2.016C5.16002 2.016 2.04002 5.136 2.04002 8.976C2.04002 12.816 5.16002 15.936 9.00002 15.936C12.84 15.936 15.96 12.816 15.96 8.976C15.96 5.16 12.864 2.04 9.00002 2.016Z" fill="#7E878B"/>
<path d="M13.008 15.312C12.264 13.104 9.86395 11.904 7.63195 12.672C6.38395 13.104 5.39995 14.064 4.99195 15.312L3.64795 14.856C4.65595 11.904 7.87195 10.32 10.824 11.328C12.48 11.88 13.8 13.2 14.352 14.856L13.008 15.312Z" fill="#7E878B"/>
<path d="M8.99973 10.296C7.29573 10.296 5.92773 8.92799 5.92773 7.22399C5.92773 5.51999 7.31973 4.15199 8.99973 4.15199C10.6797 4.15199 12.0717 5.51999 12.0717 7.22399C12.0717 8.90399 10.7037 10.296 8.99973 10.296ZM8.99973 5.56799C8.08773 5.56799 7.34373 6.31199 7.34373 7.22399C7.34373 8.13599 8.08773 8.87999 8.99973 8.87999C9.91173 8.87999 10.6557 8.13599 10.6557 7.22399C10.6557 6.31199 9.91173 5.56799 8.99973 5.56799Z" fill="#7E878B"/>
</svg>
