<svg width="210px" height="80px" viewBox="0 0 210 80" version="1.1" xmlns="http://www.w3.org/2000/svg" xmlns:xlink="http://www.w3.org/1999/xlink">
    <g id="Page-1" stroke="none" stroke-width="1" fill="none" fill-rule="evenodd">
        <g id="fldc25-logo" fill-rule="nonzero">
            <g id="Drupal-Camp" transform="translate(83, 55)" fill="#E70077">
                <path d="M-1.94289029e-15,9.9680002 L-1.94289029e-15,0.1679992 L3.822,0.1679992 C6.902,0.1679992 9.03,2.2820002 9.03,5.0400002 L9.03,5.0680002 C9.03,7.8260002 6.902,9.9680002 3.822,9.9680002 L-1.94289029e-15,9.9680002 Z M3.822,2.1140002 L2.156,2.1140002 L2.156,8.0220002 L3.822,8.0220002 C5.586,8.0220002 6.776,6.8320002 6.776,5.0960002 L6.776,5.0680002 C6.776,3.3320002 5.586,2.1140002 3.822,2.1140002 Z M11.6512,9.9680002 L11.6512,0.1679992 L16.1312,0.1679992 C17.3772,0.1679992 18.3432,0.5180002 18.9872,1.1620002 C19.5332,1.7080002 19.8272,2.4780002 19.8272,3.4020002 L19.8272,3.4300002 C19.8272,5.0120002 18.9732,6.0060002 17.7272,6.4680002 L20.1212,9.9680002 L17.6012,9.9680002 L15.5012,6.8320002 L13.8072,6.8320002 L13.8072,9.9680002 L11.6512,9.9680002 Z M13.8072,4.9280002 L15.9912,4.9280002 C17.0412,4.9280002 17.6432,4.3680002 17.6432,3.5420002 L17.6432,3.5140002 C17.6432,2.5900002 16.9992,2.1140002 15.9492,2.1140002 L13.8072,2.1140002 L13.8072,4.9280002 Z M26.5564,10.1220002 C23.9244,10.1220002 22.3144,8.6520002 22.3144,5.7680002 L22.3144,0.1679992 L24.4704,0.1679992 L24.4704,5.7120002 C24.4704,7.3080002 25.2684,8.1340002 26.5844,8.1340002 C27.9004,8.1340002 28.6984,7.3360002 28.6984,5.7820002 L28.6984,0.1679992 L30.8544,0.1679992 L30.8544,5.6980002 C30.8544,8.6660002 29.1884,10.1220002 26.5564,10.1220002 Z M33.7504,9.9680002 L33.7504,0.1679992 L37.7544,0.1679992 C40.0924,0.1679992 41.5064,1.5540002 41.5064,3.5560002 L41.5064,3.5840002 C41.5064,5.8520002 39.7424,7.0280002 37.5444,7.0280002 L35.9064,7.0280002 L35.9064,9.9680002 L33.7504,9.9680002 Z M35.9064,5.1100002 L37.6144,5.1100002 C38.6924,5.1100002 39.3224,4.4660002 39.3224,3.6260002 L39.3224,3.5980002 C39.3224,2.6320002 38.6504,2.1140002 37.5724,2.1140002 L35.9064,2.1140002 L35.9064,5.1100002 Z M41.9776,9.9680002 L46.1776,0.0979992 L48.1656,0.0979992 L52.3656,9.9680002 L50.1116,9.9680002 L49.2156,7.7700002 L45.0716,7.7700002 L44.1756,9.9680002 L41.9776,9.9680002 Z M45.8416,5.8660002 L48.4456,5.8660002 L47.1436,2.6880002 L45.8416,5.8660002 Z M54.5781,9.9680002 L54.5781,0.1679992 L56.7341,0.1679992 L56.7341,8.0080002 L61.6201,8.0080002 L61.6201,9.9680002 L54.5781,9.9680002 Z M73.4354,10.1360002 C70.5514,10.1360002 68.4094,7.9100002 68.4094,5.0960002 L68.4094,5.0680002 C68.4094,2.2820002 70.5094,-3.53883589e-16 73.5194,-3.53883589e-16 C75.3674,-3.53883589e-16 76.4734,0.6159992 77.3834,1.5120002 L76.0114,3.0940002 C75.2554,2.4080002 74.4854,1.9880002 73.5054,1.9880002 C71.8534,1.9880002 70.6634,3.3600002 70.6634,5.0400002 L70.6634,5.0680002 C70.6634,6.7480002 71.8254,8.1480002 73.5054,8.1480002 C74.6254,8.1480002 75.3114,7.7000002 76.0814,7 L77.4534,8.3860002 C76.4454,9.4640002 75.3254,10.1360002 73.4354,10.1360002 Z M79.0393,9.9680002 L83.2393,0.0979992 L85.2273,0.0979992 L89.4273,9.9680002 L87.1733,9.9680002 L86.2773,7.7700002 L82.1333,7.7700002 L81.2373,9.9680002 L79.0393,9.9680002 Z M82.9033,5.8660002 L85.5073,5.8660002 L84.2053,2.6880002 L82.9033,5.8660002 Z M91.6398,9.9680002 L91.6398,0.1679992 L93.9638,0.1679992 L96.5398,4.3120002 L99.1158,0.1679992 L101.44,0.1679992 L101.44,9.9680002 L99.2978,9.9680002 L99.2978,3.5700002 L96.5398,7.7560002 L96.4838,7.7560002 L93.7538,3.6120002 L93.7538,9.9680002 L91.6398,9.9680002 Z M104.494,9.9680002 L104.494,0.1679992 L108.498,0.1679992 C110.836,0.1679992 112.25,1.5540002 112.25,3.5560002 L112.25,3.5840002 C112.25,5.8520002 110.486,7.0280002 108.288,7.0280002 L106.65,7.0280002 L106.65,9.9680002 L104.494,9.9680002 Z M106.65,5.1100002 L108.358,5.1100002 C109.436,5.1100002 110.066,4.4660002 110.066,3.6260002 L110.066,3.5980002 C110.066,2.6320002 109.394,2.1140002 108.316,2.1140002 L106.65,2.1140002 L106.65,5.1100002 Z" id="Shape"></path>
            </g>
            <g id="Florida" transform="translate(84, 23)" fill="#000000">
                <path d="M15.68,0.5759997 L15.68,6.0800017 L5.696,6.0800017 L5.696,9.0240017 L12.896,9.0240017 L12.896,14.5280017 L5.696,14.5280017 L5.696,22.9760017 L-1.44328993e-15,22.9760017 L-1.44328993e-15,0.5759997 L15.68,0.5759997 Z M24.6978,0.5759997 L24.6978,17.4720017 L33.7538,17.4720017 L33.7538,22.9760017 L19.1938,22.9760017 L19.1938,0.5759997 L24.6978,0.5759997 Z M53.069,7.7760017 C53.069,5.6640017 52.621,-5.82867088e-16 45.037,-5.82867088e-16 C37.453,-5.82867088e-16 37.005,5.6640017 37.005,7.7760017 L37.005,15.7760017 C37.005,17.8880017 37.453,23.5520017 45.037,23.5520017 C52.621,23.5520017 53.069,17.8880017 53.069,15.7760017 L53.069,7.7760017 Z M47.565,14.0800017 C47.565,16.5440017 47.405,18.0480017 45.037,18.0480017 C42.669,18.0480017 42.509,16.5440017 42.509,14.0800017 L42.509,9.4720017 C42.509,7.0080017 42.669,5.5040017 45.037,5.5040017 C47.405,5.5040017 47.565,7.0080017 47.565,9.4720017 L47.565,14.0800017 Z M70.894,14.7200017 C72.878,13.2800017 73.55,11.2960017 73.55,8.2560017 C73.55,3.0080017 71.246,0.5759997 65.55,0.5759997 L57.55,0.5759997 L57.55,22.9760017 L63.118,22.9760017 L63.118,15.9680017 L65.582,15.9680017 L69.198,22.9760017 L75.342,22.9760017 L70.894,14.7200017 Z M65.742,6.1120017 C67.278,6.0800017 68.046,6.2720017 68.046,8.2560017 C68.046,10.2400017 67.278,10.4320017 65.742,10.4320017 L63.118,10.4320017 L63.118,6.1120017 L65.742,6.1120017 Z M84.1838,0.5759997 L84.1838,22.9760017 L78.7438,22.9760017 L78.7438,0.5759997 L84.1838,0.5759997 Z M88.9688,0.5759997 L88.9688,22.9760017 L97.0648,22.9760017 C103.081,22.9760017 105.065,20.5120017 105.065,15.2640017 L105.065,8.2560017 C105.065,3.0080017 103.081,0.5759997 97.0648,0.5759997 L88.9688,0.5759997 Z M94.4728,17.4720017 L94.4728,6.0800017 L97.1608,6.0800017 C98.6968,6.0800017 99.465,6.2720017 99.465,8.2560017 C99.465,8.2880017 99.465,15.2640017 99.465,15.2960017 C99.465,17.2160017 98.6968,17.4720017 97.1608,17.4720017 L94.4728,17.4720017 Z M125.057,22.9760017 L119.553,22.9760017 L119.553,18.2720017 L114.881,18.2720017 L114.881,22.9760017 L109.377,22.9760017 L109.377,8.3200017 C109.377,4.2880017 110.017,-5.82867088e-16 117.217,-5.82867088e-16 C124.417,-5.82867088e-16 125.057,4.2880017 125.057,8.3200017 L125.057,22.9760017 Z M119.553,8.3200017 C119.553,6.7840017 119.329,6.0160017 117.217,6.0160017 C115.105,6.0160017 114.881,6.7840017 114.881,8.3200017 L114.881,12.7360017 L119.553,12.7360017 L119.553,8.3200017 Z" id="Shape"></path>
            </g>
            <g id="Frame">
                <path d="M60.6145437,45.252075 C60.2350437,40.383875 58.5820437,35.700975 55.8212437,31.673275 C54.9178437,30.329275 53.9150437,29.054775 52.8211437,27.860575 C50.1921437,24.782275 47.5708437,21.696275 44.9223437,18.633575 C44.0941437,17.672575 43.2503437,16.719475 42.4378437,15.750675 C40.4533437,13.379375 38.4102437,11.062875 36.4258437,8.691715 C35.1757437,7.203355 33.8944437,5.734535 32.6326437,4.250095 C32.4607437,4.043045 32.3631437,4.023515 32.1756437,4.250095 C30.6390437,6.073095 29.0973437,7.888265 27.5503437,9.695645 L20.0734437,18.434375 C17.4066437,21.559475 14.7398437,24.674275 12.0730437,27.778575 C10.6393437,29.355275 9.34662368,31.054575 8.20959368,32.856975 C6.77056368,35.262975 5.69013368,37.866075 5.00241368,40.583875 C4.51598368,42.515475 4.21769368,44.489575 4.11174368,46.478675 C3.92324368,51.502075 5.08182368,56.484275 7.46737368,60.909075 C8.05851368,62.053475 8.74316368,63.147075 9.51434368,64.178775 C13.4525437,69.623475 19.2024437,73.486175 25.7319437,75.073375 C32.2614437,76.660675 39.1429437,75.868575 45.1410437,72.839375 C46.4705437,72.164275 47.7419437,71.380375 48.9420437,70.495475 C50.0804437,69.677575 51.1599437,68.780875 52.1726437,67.811775 C54.6510437,65.400075 56.6627437,62.551375 58.1065437,59.408975 C59.1447437,57.137375 59.8902437,54.743075 60.3254437,52.283675 C60.7292437,49.962575 60.8264437,47.598475 60.6145437,45.252075 Z" id="Path" fill="#000000"></path>
                <path d="M32.4451437,79.9843757 C29.8346437,79.980175 27.2340437,79.664175 24.6986437,79.042875 C17.2506437,77.208375 10.6932437,72.794775 6.18991368,66.585275 C5.31060368,65.396475 4.52686368,64.139875 3.84605368,62.827275 C1.11544368,57.752375 -0.20390012,52.037875 0.0255506801,46.279575 C0.14046168,44.025675 0.47540368,41.788375 1.02560368,39.599575 C1.80998368,36.498075 3.04310368,33.527775 4.68593368,30.782675 C5.94320368,28.764275 7.38149368,26.864475 8.98301368,25.106675 L14.9051437,18.192275 L18.5928437,13.895175 L24.4525437,7.039365 C25.9942437,5.237195 27.5321437,3.429865 29.0660437,1.617275 C29.4719437,1.116465 29.9837437,0.711702 30.5645437,0.432083 C31.1454437,0.152465 31.7809437,0.0049216 32.4255437,0 C33.0658437,0.0035641 33.6974437,0.148208 34.2754437,0.42369 C34.8533437,0.699173 35.3635437,1.098705 35.7694437,1.593815 C36.2903437,2.211025 36.8177437,2.828245 37.3515437,3.445455 C38.0938437,4.312685 38.8360437,5.176035 39.5704437,6.051075 C40.5314437,7.195665 41.5236437,8.351975 42.4885437,9.473115 C43.5042437,10.645075 44.5589437,11.883375 45.5863437,13.113875 C46.1489437,13.785775 46.7270437,14.449875 47.3052437,15.113975 L48.0279437,15.946075 C50.2116437,18.473575 52.4109437,21.051775 54.5360437,23.544075 L56.4072437,25.735675 C57.4532437,26.891775 58.4079437,28.127275 59.2628437,29.431075 C62.3927437,34.029075 64.2696437,39.363675 64.7084437,44.908475 C64.9438437,47.603475 64.8282437,50.317775 64.3646437,52.983075 C63.8699437,55.782175 63.0219437,58.507175 61.8410437,61.092875 C60.1893437,64.697375 57.8877437,67.966875 55.0516437,70.737775 C53.9013437,71.843875 52.6742437,72.867275 51.3796437,73.800475 C49.9994437,74.815975 48.5387437,75.717475 47.0122437,76.495875 C43.8011437,78.118275 40.3421437,79.194175 36.7773437,79.679675 C35.3422437,79.882875 33.8945437,79.9843757 32.4451437,79.9843757 Z M32.4177437,10.305175 L30.6676437,12.356075 L24.8080437,19.211875 L21.1203437,23.508975 C19.1436437,25.816375 17.1670437,28.123775 15.1903437,30.431175 C13.9163437,31.828475 12.7649437,33.332775 11.7487437,34.927475 C10.5092437,36.994575 9.57876368,39.231875 8.98692368,41.568375 C8.56037368,43.242075 8.29870368,44.953475 8.20564368,46.678075 C8.04992368,50.933675 9.03015368,55.153875 11.0456437,58.905175 L11.1393437,59.084875 C11.6331437,60.025975 12.2013437,60.926075 12.8386437,61.776475 C16.1974437,66.399975 21.0812437,69.688575 26.6284437,71.062075 C32.2204437,72.441275 38.1212437,71.776275 43.2659437,69.186975 C44.3969437,68.612675 45.4787437,67.946275 46.5004437,67.194675 C47.4821437,66.490075 48.4140437,65.718675 49.2896437,64.885975 C51.4156437,62.821475 53.1379437,60.378475 54.3680437,57.682475 C55.2637437,55.723875 55.9057437,53.658875 56.2783437,51.537675 C56.6204437,49.573775 56.7018437,47.573375 56.5205437,45.588175 C56.2087437,41.423775 54.7958437,37.417075 52.4265437,33.978175 L52.3328437,33.833675 C51.6865437,32.869375 50.9682437,31.955275 50.1842437,31.099175 L48.2818437,28.872475 C46.1645437,26.391875 43.9847437,23.825375 41.8127437,21.321375 L41.1056437,20.504875 C40.4923437,19.801775 39.8829437,19.098575 39.2852437,18.387575 C38.2891437,17.215675 37.2539437,15.992975 36.2538437,14.828875 C35.2538437,13.664675 34.2655437,12.512375 33.2771437,11.332575 L32.4177437,10.305175 Z" id="Shape" fill="#000000"></path>
                <path d="M60.6145437,45.252075 C60.2350437,40.383875 58.5820437,35.700975 55.8212437,31.673275 C54.9178437,30.329275 53.9150437,29.054775 52.8211437,27.860575 C50.1921437,24.782275 47.5708437,21.696275 44.9223437,18.633575 C44.0941437,17.672575 43.2503437,16.719475 42.4378437,15.750675 C40.4533437,13.379375 38.4102437,11.062875 36.4258437,8.691715 C35.1757437,7.203355 33.8944437,5.734535 32.6326437,4.250095 C32.4607437,4.043045 32.3631437,4.023515 32.1756437,4.250095 C30.6390437,6.073095 29.0973437,7.888265 27.5503437,9.695645 L20.0734437,18.434375 C17.4066437,21.559475 14.7398437,24.674275 12.0730437,27.778575 C10.6393437,29.355275 9.34662368,31.054575 8.20959368,32.856975 C6.77056368,35.262975 5.69013368,37.866075 5.00241368,40.583875 C4.51598368,42.515475 4.21769368,44.489575 4.11174368,46.478675 C3.92324368,51.502075 5.08182368,56.484275 7.46737368,60.909075 C8.05851368,62.053475 8.74316368,63.147075 9.51434368,64.178775 C13.4525437,69.623475 19.2024437,73.486175 25.7319437,75.073375 C32.2614437,76.660675 39.1429437,75.868575 45.1410437,72.839375 C46.4705437,72.164275 47.7419437,71.380375 48.9420437,70.495475 C50.0804437,69.677575 51.1599437,68.780875 52.1726437,67.811775 C54.6510437,65.400075 56.6627437,62.551375 58.1065437,59.408975 C59.1447437,57.137375 59.8902437,54.743075 60.3254437,52.283675 C60.7292437,49.962575 60.8264437,47.598475 60.6145437,45.252075 Z" id="Path" fill="#93E7FF"></path>
                <path d="M32.4022437,67.011175 C43.1356437,67.011175 51.8367437,58.310075 51.8367437,47.576675 C51.8367437,36.843275 43.1356437,28.142075 32.4022437,28.142075 C21.6688437,28.142075 12.9676437,36.843275 12.9676437,47.576675 C12.9676437,58.310075 21.6688437,67.011175 32.4022437,67.011175 Z" id="Path" fill="#FF6EB9"></path>
                <path d="M42.3362437,33.392375 L44.5121437,31.216475 C44.5424437,31.186975 44.5664437,31.151675 44.5828437,31.112775 C44.5992437,31.073875 44.6077437,31.032075 44.6077437,30.989875 C44.6077437,30.947675 44.5992437,30.905875 44.5828437,30.866975 C44.5664437,30.827975 44.5424437,30.792775 44.5121437,30.763275 C43.4756437,29.794275 42.2378437,29.066175 40.8871437,28.631275 C39.5365437,28.196375 38.1064437,28.065375 36.6992437,28.247575 C36.6320437,28.257875 36.5632437,28.245975 36.5034437,28.213675 C36.4435437,28.181375 36.3958437,28.130475 36.3675437,28.068575 C36.3392437,28.006675 36.3319437,27.937275 36.3467437,27.870875 C36.3614437,27.804475 36.3974437,27.744675 36.4492437,27.700675 C37.4281437,26.894775 38.6401437,26.424975 39.9064437,26.360775 C39.9876437,26.357775 40.0646437,26.323575 40.1213437,26.265375 C40.1780437,26.207275 40.2102437,26.129475 40.2111437,26.048175 L40.2111437,22.969975 C40.2117437,22.928075 40.2037437,22.886575 40.1877437,22.847875 C40.1717437,22.809175 40.1480437,22.774175 40.1181437,22.744875 C40.0881437,22.715675 40.0525437,22.692875 40.0134437,22.677775 C39.9744437,22.662775 39.9326437,22.655875 39.8908437,22.6572488 C38.4932437,22.703475 37.1224437,23.053375 35.8737437,23.682775 C34.6250437,24.312175 33.5283437,25.206075 32.6600437,26.302175 C32.6307437,26.339475 32.5934437,26.369675 32.5508437,26.390475 C32.5081437,26.411275 32.4613437,26.422075 32.4139437,26.422075 C32.3664437,26.422075 32.3196437,26.411275 32.2770437,26.390475 C32.2344437,26.369675 32.1970437,26.339475 32.1678437,26.302175 C31.3006437,25.205775 30.2047437,24.311675 28.9566437,23.682175 C27.7084437,23.052675 26.3380437,22.702975 24.9409437,22.6572488 C24.8990437,22.655875 24.8573437,22.662775 24.8182437,22.677775 C24.7792437,22.692875 24.7436437,22.715675 24.7136437,22.744875 C24.6836437,22.774175 24.6599437,22.809175 24.6439437,22.847875 C24.6279437,22.886575 24.6200437,22.928075 24.6205437,22.969975 L24.6205437,26.048175 C24.6205437,26.129075 24.6518437,26.206875 24.7079437,26.265175 C24.7640437,26.323475 24.8405437,26.357675 24.9213437,26.360775 C26.1860437,26.423575 27.3969437,26.892075 28.3746437,27.696675 C28.4265437,27.739675 28.4630437,27.798475 28.4783437,27.864175 C28.4937437,27.929775 28.4872437,27.998575 28.4597437,28.060175 C28.4322437,28.121775 28.3854437,28.172675 28.3263437,28.205075 C28.2672437,28.237475 28.1991437,28.249675 28.1324437,28.239675 C27.7243437,28.187875 27.3133437,28.161875 26.9019437,28.161575 C24.4526437,28.154575 22.0939437,29.087075 20.3117437,30.767175 C20.2530437,30.826475 20.2201437,30.906475 20.2201437,30.989875 C20.2201437,31.073275 20.2530437,31.153275 20.3117437,31.212475 L22.4915437,33.392375 C22.5491437,33.448175 22.6262437,33.479375 22.7064437,33.479375 C22.7866437,33.479375 22.8636437,33.448175 22.9212437,33.392375 C24.0129437,32.404275 25.4334437,31.858375 26.9058437,31.860975 C27.0581437,31.860975 27.2066437,31.860975 27.3550437,31.860975 C26.0017437,32.696975 24.8760437,33.854375 24.0779437,35.230375 C23.2798437,36.606375 22.8342437,38.158375 22.7806437,39.748175 C22.7790437,39.789975 22.7859437,39.831675 22.8010437,39.870775 C22.8160437,39.909775 22.8388437,39.945375 22.8681437,39.975375 C22.8973437,40.005275 22.9323437,40.028975 22.9710437,40.044975 C23.0097437,40.060975 23.0512437,40.068975 23.0931437,40.068475 L26.1714437,40.068475 C26.2526437,40.067475 26.3304437,40.035275 26.3886437,39.978575 C26.4468437,39.921875 26.4809437,39.844875 26.4839437,39.763675 C26.5418437,38.645175 26.9146437,37.565775 27.5595437,36.649875 C28.2044437,35.734075 29.0950437,35.019175 30.1286437,34.587675 C30.1763437,34.567175 30.2283437,34.558675 30.2801437,34.563075 C30.3318437,34.567375 30.3817437,34.584375 30.4254437,34.612575 C30.4690437,34.640775 30.5050437,34.679275 30.5302437,34.724675 C30.5555437,34.770075 30.5691437,34.820875 30.5700437,34.872875 L30.5700437,54.506575 C30.5700437,54.547475 30.5781437,54.587975 30.5939437,54.625675 C30.6096437,54.663375 30.6327437,54.697575 30.6618437,54.726275 C30.6909437,54.754975 30.7254437,54.777575 30.7632437,54.792875 C30.8011437,54.808175 30.8417437,54.815775 30.8825437,54.8152982 L33.9569437,54.8152982 C33.9978437,54.815775 34.0383437,54.808175 34.0762437,54.792875 C34.1141437,54.777575 34.1486437,54.754975 34.1777437,54.726275 C34.2067437,54.697575 34.2298437,54.663375 34.2456437,54.625675 C34.2613437,54.587975 34.2694437,54.547475 34.2694437,54.506575 L34.2694437,34.872875 C34.2696437,34.821075 34.2827437,34.770175 34.3075437,34.724675 C34.3322437,34.679175 34.3679437,34.640575 34.4113437,34.612275 C34.4547437,34.583975 34.5044437,34.566975 34.5560437,34.562675 C34.6076437,34.558375 34.6595437,34.566975 34.7070437,34.587675 C35.7413437,35.018575 36.6327437,35.733275 37.2783437,36.649075 C37.9239437,37.564975 38.2974437,38.644675 38.3556437,39.763675 C38.3576437,39.844575 38.3909437,39.921475 38.4484437,39.978275 C38.5060437,40.035175 38.5833437,40.067475 38.6642437,40.068475 L41.7425437,40.068475 C41.7845437,40.068975 41.8262437,40.060975 41.8651437,40.045075 C41.9040437,40.029075 41.9392437,40.005475 41.9688437,39.975575 C41.9983437,39.945675 42.0215437,39.910075 42.0370437,39.870975 C42.0525437,39.831975 42.0599437,39.790175 42.0589437,39.748175 C42.0116437,38.327675 41.6504437,36.935275 41.0014437,35.670975 C40.3523437,34.406575 39.4314437,33.301575 38.3048437,32.435275 C38.2528437,32.392075 38.2160437,32.333475 38.1998437,32.267975 C38.1835437,32.202475 38.1886437,32.133475 38.2144437,32.071075 C38.2401437,32.008675 38.2851437,31.956175 38.3429437,31.921175 C38.4006437,31.886175 38.4680437,31.870575 38.5353437,31.876675 C39.7922437,32.002675 40.9761437,32.526875 41.9143437,33.372775 C41.9699437,33.427475 42.0437437,33.459675 42.1216437,33.463275 C42.1994437,33.466875 42.2758437,33.441575 42.3362437,33.392375 Z" id="Path" fill="#000000"></path>
                <path d="M56.3056437,51.987075 C55.3779437,51.986975 54.4738437,51.694375 53.7219437,51.150875 C52.9701437,50.607275 52.4088437,49.840475 52.1179437,48.959575 C52.1036437,48.912075 52.0745437,48.870475 52.0347437,48.840975 C51.9950437,48.811375 51.9467437,48.795475 51.8972437,48.795475 C51.8477437,48.795475 51.7994437,48.811375 51.7597437,48.840975 C51.7199437,48.870475 51.6907437,48.912075 51.6765437,48.959575 C51.3853437,49.841275 50.8235437,50.608775 50.0709437,51.152775 C49.3184437,51.696675 48.4134437,51.989575 47.4849437,51.989575 C46.5563437,51.989575 45.6514437,51.696675 44.8988437,51.152775 C44.1463437,50.608775 43.5845437,49.841275 43.2933437,48.959575 C43.2790437,48.912075 43.2498437,48.870475 43.2101437,48.840975 C43.1703437,48.811375 43.1221437,48.795475 43.0725437,48.795475 C43.0230437,48.795475 42.9748437,48.811375 42.9350437,48.840975 C42.8953437,48.870475 42.8661437,48.912075 42.8518437,48.959575 C42.5166437,49.947175 41.8425437,50.784275 40.9489437,51.322275 C40.0554437,51.860375 39.0003437,52.064575 37.9705437,51.898875 C36.9408437,51.733275 36.0029437,51.208275 35.3233437,50.417075 C34.6437437,49.625875 34.2662437,48.619675 34.2577437,47.576675 L30.5739437,47.576675 C30.5654437,48.619675 30.1879437,49.625875 29.5082437,50.417075 C28.8286437,51.208275 27.8908437,51.733275 26.8610437,51.898875 C25.8313437,52.064575 24.7761437,51.860375 23.8826437,51.322275 C22.9891437,50.784275 22.3150437,49.947175 21.9797437,48.959575 C21.9655437,48.912075 21.9363437,48.870475 21.8965437,48.840975 C21.8568437,48.811375 21.8085437,48.795475 21.7590437,48.795475 C21.7095437,48.795475 21.6612437,48.811375 21.6215437,48.840975 C21.5817437,48.870475 21.5526437,48.912075 21.5383437,48.959575 C21.2471437,49.841275 20.6853437,50.608775 19.9327437,51.152775 C19.1802437,51.696675 18.2752437,51.989575 17.3467437,51.989575 C16.4181437,51.989575 15.5132437,51.696675 14.7606437,51.152775 C14.0081437,50.608775 13.4463437,49.841275 13.1551437,48.959575 C13.1408437,48.912075 13.1116437,48.870475 13.0719437,48.840975 C13.0321437,48.811375 12.9839437,48.795475 12.9344437,48.795475 C12.8848437,48.795475 12.8366437,48.811375 12.7968437,48.840975 C12.7571437,48.870475 12.7279437,48.912075 12.7136437,48.959575 C12.3784437,49.947175 11.7043437,50.784275 10.8108437,51.322275 C9.91724368,51.860375 8.86212368,52.064575 7.83236368,51.898875 C6.80261368,51.733275 5.86478368,51.208275 5.18516368,50.417075 C4.50553368,49.625875 4.12800368,48.619675 4.11950368,47.576675 C4.11950368,55.088075 7.10339368,62.291775 12.4147437,67.603175 C17.7260437,72.914475 24.9298437,75.898375 32.4412437,75.898375 C39.9526437,75.898375 47.1563437,72.914475 52.4676437,67.603175 C57.7790437,62.291775 60.7629437,55.088075 60.7629437,47.576675 C60.7629437,48.159775 60.6473437,48.737175 60.4227437,49.275375 C60.1981437,49.813475 59.8691437,50.301775 59.4546437,50.711975 C59.0400437,51.122175 58.5483437,51.445975 58.0078437,51.664875 C57.4673437,51.883775 56.8887437,51.993275 56.3056437,51.987075 Z" id="Path" fill="#000000"></path>
                <path d="M56.3017437,51.987075 C55.3733437,51.987775 54.4684437,51.695575 53.7157437,51.151975 C52.9631437,50.608375 52.4012437,49.841175 52.1101437,48.959575 C52.0959437,48.912075 52.0667437,48.870475 52.0269437,48.840975 C51.9872437,48.811375 51.9390437,48.795475 51.8894437,48.795475 C51.8399437,48.795475 51.7916437,48.811375 51.7519437,48.840975 C51.7121437,48.870475 51.6830437,48.912075 51.6687437,48.959575 C51.3775437,49.841275 50.8157437,50.608775 50.0631437,51.152775 C49.3106437,51.696675 48.4057437,51.989575 47.4771437,51.989575 C46.5485437,51.989575 45.6436437,51.696675 44.8910437,51.152775 C44.1385437,50.608775 43.5767437,49.841275 43.2855437,48.959575 C43.2712437,48.912075 43.2420437,48.870475 43.2023437,48.840975 C43.1625437,48.811375 43.1143437,48.795475 43.0648437,48.795475 C43.0152437,48.795475 42.9670437,48.811375 42.9272437,48.840975 C42.8875437,48.870475 42.8583437,48.912075 42.8440437,48.959575 C42.5088437,49.947175 41.8347437,50.784275 40.9412437,51.322275 C40.0477437,51.860375 38.9925437,52.064575 37.9627437,51.898875 C36.9330437,51.733275 35.9952437,51.208275 35.3155437,50.417075 C34.6359437,49.625875 34.2584437,48.619675 34.2499437,47.576675 L30.5661437,47.576675 C30.5576437,48.619675 30.1801437,49.625875 29.5004437,50.417075 C28.8208437,51.208275 27.8830437,51.733275 26.8533437,51.898875 C25.8235437,52.064575 24.7683437,51.860375 23.8748437,51.322275 C22.9813437,50.784275 22.3072437,49.947175 21.9719437,48.959575 C21.9577437,48.912075 21.9285437,48.870475 21.8887437,48.840975 C21.8490437,48.811375 21.8008437,48.795475 21.7512437,48.795475 C21.7017437,48.795475 21.6535437,48.811375 21.6137437,48.840975 C21.5739437,48.870475 21.5448437,48.912075 21.5305437,48.959575 C21.2384437,49.839875 20.6764437,50.605775 19.9244437,51.148675 C19.1723437,51.691475 18.2684437,51.983675 17.3409437,51.983675 C16.4133437,51.983675 15.5094437,51.691475 14.7573437,51.148675 C14.0053437,50.605775 13.4433437,49.839875 13.1512437,48.959575 C13.1358437,48.912675 13.1059437,48.871775 13.0660437,48.842875 C13.0260437,48.813875 12.9779437,48.798375 12.9285437,48.798375 C12.8792437,48.798375 12.8311437,48.813875 12.7911437,48.842875 C12.7511437,48.871775 12.7213437,48.912675 12.7059437,48.959575 C12.3706437,49.947175 11.6965437,50.784275 10.8030437,51.322275 C9.90954368,51.860375 8.85433368,52.064575 7.82458368,51.898875 C6.79483368,51.733275 5.85701368,51.208275 5.17738368,50.417075 C4.49775368,49.625875 4.12023368,48.619675 4.11173368,47.576675 C0.20528968,63.202375 16.7881437,77.757875 32.4256437,77.757875 C48.0631437,77.757875 64.5912437,63.221975 60.7355437,47.576675 C60.7356437,48.157775 60.6207437,48.733275 60.3976437,49.269875 C60.1745437,49.806475 59.8475437,50.293775 59.4355437,50.703575 C59.0235437,51.113475 58.5345437,51.437775 57.9967437,51.658075 C57.4589437,51.878275 56.8829437,51.990175 56.3017437,51.987075 Z" id="Path" fill="#000000"></path>
                <path d="M21.8938437,57.588775 C21.9474437,57.578075 22.0028437,57.580775 22.0551437,57.596575 C22.1074437,57.612475 22.1550437,57.640975 22.1936437,57.679575 C22.2323437,57.718175 22.2608437,57.765775 22.2766437,57.818075 C22.2925437,57.870375 22.2952437,57.925775 22.2845437,57.979375 L22.2845437,59.381875 C22.2942437,59.435275 22.2908437,59.490275 22.2746437,59.542075 C22.2584437,59.593975 22.2299437,59.641075 22.1915437,59.679475 C22.1531437,59.717875 22.1059437,59.746375 22.0541437,59.762575 C22.0022437,59.778775 21.9472437,59.782175 21.8938437,59.772475 L18.7452437,59.772475 C18.6918437,59.762775 18.6368437,59.766075 18.5849437,59.782275 C18.5331437,59.798475 18.4860437,59.826975 18.4475437,59.865375 C18.4091437,59.903775 18.3806437,59.950975 18.3644437,60.002875 C18.3482437,60.054675 18.3449437,60.109675 18.3546437,60.163075 L18.3546437,60.553775 C18.3458437,60.607075 18.3498437,60.661575 18.3663437,60.713075 C18.3829437,60.764475 18.4114437,60.811175 18.4496437,60.849375 C18.4878437,60.887575 18.5345437,60.916075 18.5859437,60.932675 C18.6373437,60.949175 18.6919437,60.953175 18.7452437,60.944375 L20.8078437,60.944375 C20.8614437,60.933675 20.9168437,60.936375 20.9691437,60.952175 C21.0214437,60.968075 21.0690437,60.996575 21.1076437,61.035175 C21.1463437,61.073875 21.1748437,61.121375 21.1906437,61.173775 C21.2065437,61.226075 21.2092437,61.281475 21.1985437,61.335075 L21.1985437,62.737475 C21.2073437,62.790775 21.2032437,62.845275 21.1867437,62.896675 C21.1702437,62.948175 21.1416437,62.994875 21.1034437,63.033075 C21.0653437,63.071275 21.0185437,63.099775 20.9671437,63.116275 C20.9157437,63.132875 20.8611437,63.136875 20.8078437,63.128075 L18.7452437,63.128075 C18.6918437,63.118375 18.6368437,63.121775 18.5849437,63.137975 C18.5331437,63.154175 18.4860437,63.182675 18.4475437,63.221075 C18.4091437,63.259475 18.3806437,63.306575 18.3644437,63.358475 C18.3482437,63.410275 18.3449437,63.465275 18.3546437,63.518775 L18.3546437,66.065775 C18.3643437,66.119175 18.3609437,66.174175 18.3447437,66.225975 C18.3285437,66.277875 18.3000437,66.324975 18.2616437,66.363375 C18.2232437,66.401775 18.1760437,66.430275 18.1242437,66.446475 C18.0724437,66.462675 18.0174437,66.466075 17.9639437,66.456375 L16.4873437,66.456375 C16.4342437,66.464275 16.3799437,66.459675 16.3289437,66.442775 C16.2779437,66.425975 16.2316437,66.397375 16.1936437,66.359475 C16.1556437,66.321475 16.1271437,66.275075 16.1102437,66.224075 C16.0934437,66.173075 16.0887437,66.118875 16.0967437,66.065775 L16.0967437,57.963775 C16.0879437,57.910475 16.0919437,57.855875 16.1084437,57.804475 C16.1249437,57.753075 16.1535437,57.706275 16.1917437,57.668175 C16.2298437,57.629975 16.2766437,57.601375 16.3280437,57.584875 C16.3794437,57.568375 16.4340437,57.564375 16.4873437,57.573175 L21.8938437,57.588775 Z" id="Path" fill="#FFFFFF"></path>
                <path d="M26.7847437,57.588775 C26.8383437,57.578075 26.8937437,57.580775 26.9460437,57.596575 C26.9983437,57.612475 27.0458437,57.640975 27.0845437,57.679575 C27.1231437,57.718175 27.1516437,57.765775 27.1675437,57.818075 C27.1833437,57.870375 27.1860437,57.925775 27.1753437,57.979375 L27.1753437,63.839075 C27.1665437,63.892275 27.1706437,63.946975 27.1871437,63.998375 C27.2036437,64.049775 27.2321437,64.096475 27.2703437,64.134675 C27.3085437,64.172875 27.3552437,64.201475 27.4066437,64.217975 C27.4581437,64.234475 27.5127437,64.238475 27.5660437,64.229675 L30.3512437,64.229675 C30.4048437,64.218975 30.4602437,64.221675 30.5125437,64.237575 C30.5648437,64.253375 30.6124437,64.281875 30.6511437,64.320575 C30.6897437,64.359175 30.7182437,64.406775 30.7341437,64.459075 C30.7499437,64.511375 30.7526437,64.566775 30.7419437,64.620375 L30.7419437,66.018875 C30.7526437,66.072475 30.7499437,66.127875 30.7341437,66.180175 C30.7182437,66.232475 30.6897437,66.279975 30.6511437,66.318675 C30.6124437,66.357275 30.5648437,66.385775 30.5125437,66.401675 C30.4602437,66.417475 30.4048437,66.420175 30.3512437,66.409475 L25.3940437,66.409475 C25.3407437,66.418275 25.2861437,66.414275 25.2347437,66.397775 C25.1833437,66.381175 25.1365437,66.352675 25.0983437,66.314475 C25.0602437,66.276275 25.0316437,66.229575 25.0151437,66.178175 C24.9986437,66.126675 24.9945437,66.072175 25.0033437,66.018875 L25.0033437,57.963775 C24.9945437,57.910475 24.9986437,57.855875 25.0151437,57.804475 C25.0316437,57.753075 25.0602437,57.706275 25.0983437,57.668175 C25.1365437,57.629975 25.1833437,57.601375 25.2347437,57.584875 C25.2861437,57.568375 25.3407437,57.564375 25.3940437,57.573175 L26.7847437,57.588775 Z" id="Path" fill="#FFFFFF"></path>
                <path d="M36.6445437,57.588775 C38.9883437,57.588775 39.7696437,58.541875 39.7696437,60.588875 L39.7696437,63.323375 C39.7696437,65.374275 38.9883437,66.335275 36.6445437,66.335275 L33.8592437,66.335275 C33.8059437,66.344075 33.7513437,66.339975 33.6999437,66.323475 C33.6485437,66.306975 33.6017437,66.278475 33.5636437,66.240275 C33.5254437,66.202075 33.4968437,66.155375 33.4803437,66.103975 C33.4638437,66.052475 33.4597437,65.997875 33.4685437,65.944575 L33.4685437,57.959875 C33.4615437,57.906875 33.4667437,57.852975 33.4838437,57.802375 C33.5010437,57.751775 33.5295437,57.705775 33.5673437,57.667975 C33.6051437,57.630175 33.6511437,57.601575 33.7017437,57.584475 C33.7523437,57.567375 33.8062437,57.562175 33.8592437,57.569275 L36.6445437,57.588775 Z M36.6835437,64.190575 C37.2812437,64.190575 37.5820437,64.089075 37.5820437,63.339075 L37.5820437,60.604575 C37.5820437,59.823275 37.2812437,59.756775 36.6835437,59.756775 L36.0077437,59.756775 C35.9543437,59.747075 35.8993437,59.750475 35.8475437,59.766675 C35.7956437,59.782875 35.7485437,59.811375 35.7101437,59.849775 C35.6717437,59.888175 35.6431437,59.935375 35.6269437,59.987175 C35.6107437,60.039075 35.6074437,60.094075 35.6171437,60.147475 L35.6171437,63.846875 C35.6083437,63.900175 35.6123437,63.954775 35.6289437,64.006175 C35.6454437,64.057575 35.6739437,64.104275 35.7121437,64.142475 C35.7503437,64.180675 35.7970437,64.209175 35.8484437,64.225675 C35.8998437,64.242275 35.9544437,64.246275 36.0077437,64.237475 L36.6835437,64.190575 Z" id="Shape" fill="#FFFFFF"></path>
                <path d="M42.7699437,60.401275 C42.7699437,59.576975 42.9456437,57.365975 45.8950437,57.365975 C48.5592437,57.365975 48.9733437,59.151175 49.0202437,60.100475 C49.0280437,60.182475 49.0040437,60.264375 48.9531437,60.329075 C48.9021437,60.393875 48.8282437,60.436475 48.7467437,60.448175 L47.3599437,60.760675 C47.3008437,60.772575 47.2399437,60.771475 47.1812437,60.757675 C47.1226437,60.743775 47.0676437,60.717375 47.0201437,60.680275 C46.9726437,60.643175 46.9337437,60.596175 46.9060437,60.542675 C46.8784437,60.489075 46.8627437,60.430175 46.8599437,60.369975 C46.8658437,60.245675 46.8441437,60.121475 46.7964437,60.006475 C46.7487437,59.891475 46.6761437,59.788475 46.5839437,59.704775 C46.4917437,59.621175 46.3821437,59.558975 46.2630437,59.522675 C46.1439437,59.486475 46.0182437,59.476975 45.8950437,59.494975 C44.9731437,59.494975 44.9106437,60.084875 44.9106437,61.057575 L44.9106437,62.858375 C44.9106437,63.819375 44.9731437,64.420975 45.8950437,64.420975 C46.5825437,64.420975 46.7700437,64.092875 46.8482437,63.518575 C46.8505437,63.460675 46.8657437,63.403975 46.8927437,63.352675 C46.9197437,63.301375 46.9577437,63.256775 47.0041437,63.221975 C47.0505437,63.187175 47.1040437,63.163175 47.1608437,63.151575 C47.2176437,63.140075 47.2763437,63.141375 47.3326437,63.155275 L48.7467437,63.467775 C48.8304437,63.481375 48.9056437,63.526675 48.9566437,63.594475 C49.0075437,63.662175 49.0303437,63.746975 49.0202437,63.831075 C48.9733437,64.780375 48.5592437,66.565575 45.8950437,66.565575 C42.9339437,66.565575 42.7699437,64.354575 42.7699437,63.526475 L42.7699437,60.401275 Z" id="Path" fill="#FFFFFF"></path>
            </g>
        </g>
    </g>
</svg>
